<?xml version="1.0" encoding="utf-8"?>
<!-- Generator: Adobe Illustrator 23.0.1, SVG Export Plug-In . SVG Version: 6.00 Build 0)  -->
<svg version="1.1" id="Layer_1" xmlns="http://www.w3.org/2000/svg" xmlns:xlink="http://www.w3.org/1999/xlink" x="0px" y="0px"
	 viewBox="0 0 658.5 255.27" style="enable-background:new 0 0 658.5 255.27;" xml:space="preserve">
<style type="text/css">
	.st0{fill:#003255;}
	.st1{fill:#FFFFFF;}
	.st2{fill:#003354;}
</style>
<g>
	<path class="st0" d="M127.63,255.27c70.49,0,127.63-57.14,127.63-127.63C255.27,57.15,198.13,0.01,127.64,0h-0.01
		C57.14,0,0,57.14,0,127.63v0.01C0,198.13,57.14,255.27,127.63,255.27"/>
</g>
<g>
	<path class="st1" d="M171.22,110.36V82.68c0-21.8-21-34.79-51.63-34.79H91.71v26.08h27.87C150.22,73.97,171.22,88.56,171.22,110.36
		 M169.56,151.5c2.14-4.3,3.24-9.04,3.21-13.84c0-21.8-21-34.79-51.63-34.79H91.71v26.1h29.42
		C144.7,128.97,162.56,137.59,169.56,151.5 M125.17,181.31H91.71v26.09h33.46c30.63,0,51.63-12.99,51.63-34.79v-27.67
		C176.79,166.72,155.8,181.31,125.17,181.31"/>
</g>
<g>
	<path class="st2" d="M366.47,125.27v-16.11h-10.1v2.98h7.13v11.51c-2.42,1.19-5.08,1.82-7.78,1.84c-5.62,0-10-3.24-10-12.65v-5.79
		c0-8.43,3.68-12.86,11.3-12.86c2.99,0.04,5.93,0.82,8.54,2.27l0.22-3.14c-2.76-1.42-5.82-2.15-8.92-2.11
		c-12.81,0-14.22,10.16-14.22,18.76c0,9.3,1.35,18.49,12.76,18.49C359.32,128.5,363.18,127.39,366.47,125.27 M405.38,127.86
		l-6.11-13.95c-0.48-1.46-1.69-2.57-3.19-2.92v-0.05c4.56-0.63,7.87-4.65,7.62-9.24c0-6.81-3.84-9.89-10.97-9.89h-10.11v36.06h2.98
		v-15.62h6.43c2.31,0.03,4.35,1.53,5.07,3.73l4.76,11.89H405.38z M400.61,101.91c0,4.59-2.98,7.5-9.14,7.5h-5.88v-14.8h6.92
		C398.19,94.62,400.62,96.99,400.61,101.91 M444.83,109.81c0-10.49-1.95-18.6-13.24-18.6c-11.3,0-13.68,8.11-13.68,18.6
		c0,10.54,1.94,18.65,13.24,18.65C442.51,128.46,444.83,120.35,444.83,109.81 M441.75,112.78c0,7.89-3.41,12.7-10.49,12.7
		c-7.02,0-10.28-4.81-10.28-12.7v-5.88c0-7.89,3.46-12.7,10.49-12.7c7.08,0,10.28,4.81,10.28,12.7V112.78z M483.38,116.18V91.8
		h-2.91v24.38c0,6.22-2.65,9.51-8.76,9.51c-5.67,0-8.76-3.35-8.76-9.51V91.8h-2.91v24.38c0,8.48,3.52,12.27,11.63,12.27
		c7.56,0,11.73-3.46,11.73-12.27 M521,102.18c0-7.24-4.38-10.38-11.62-10.38h-9.25v36.06h2.98v-14.65h5.41
		c8.11,0,12.5-3.57,12.5-11.03 M517.86,102.4c0,4.86-2,8-9.62,8h-5.19V94.62h6.11C515.11,94.62,517.86,96.99,517.86,102.4"/>
	<path class="st2" d="M368.56,67.64c0.14-4.18-2.89-7.79-7.03-8.38v-0.06c3.6-0.99,6.08-4.27,6.06-8c0-7.24-5.73-8.86-12.11-8.86
		h-12.16V78.4h11.67C364.82,78.4,368.55,74.45,368.56,67.64 M361.27,67.58c0,3.46-2.32,5.19-6.76,5.19h-4.05V62.4h4.38
		C358.9,62.4,361.27,63.8,361.27,67.58 M360.3,52.01c0,3.08-1.84,4.86-5.78,4.86h-4.05v-9.01h4.38c3.46,0,5.46,1.08,5.46,4.17
		 M403.55,78.4v-5.83l-13.89-0.06v-9.89h12.7v-5.78h-12.7v-8.59l13.89-0.05v-5.83h-21.03V78.4H403.55z M444.6,78.4l-5.62-12.81
		c-1.08-2.48-2.6-3.35-3.19-3.46v-0.06c4.25-1.07,7.2-4.92,7.14-9.3c0-7.62-5.14-10.43-12.81-10.43h-12.38V78.4h7.13V64.51h3.61
		c1.62,0,2.81,1.08,3.67,3.19l4.22,10.7H444.6z M435.68,53.37c0,3.3-2.06,5.46-6.49,5.46h-4.32V48.08h4.76
		C434.01,48.08,435.69,49.92,435.68,53.37 M485.59,78.43V42.35h-6.6l0.17,25.09h-0.05l-13.73-25.08h-7.62V78.4h6.6l-0.11-25.08h0.06
		l13.72,25.08L485.59,78.43z M522.95,68.13c0-5.83-3.24-8.76-9.14-10.92l-1.46-0.54c-3.41-1.24-5.35-2.5-5.35-5.03
		c0-2.76,2.05-4.22,5.63-4.22c2.9,0.1,5.74,0.82,8.33,2.11l0.32-6.16c-2.87-1.26-5.97-1.88-9.1-1.84c-8,0-12.43,4.27-12.43,10.16
		c0,6.11,3.03,9.08,8.98,11.13l1.46,0.49c3.14,1.08,5.46,2.65,5.46,5.13c0,2.65-1.84,4.86-6.49,4.86c-3.25-0.06-6.42-1-9.19-2.7
		l-0.32,6.39c3.11,1.51,6.54,2.27,10,2.22c8.92,0,13.3-4.81,13.3-11.08 M560.06,48.4v-6.06h-26v6.06h9.46v30h7.13v-30H560.06z
		 M593.89,78.4v-5.83L580,72.51v-9.89h12.7v-5.78H580v-8.59l13.89-0.05v-5.83h-21.02V78.4H593.89z M615.32,42.35h-7.19V78.4h7.19
		V42.35z M658.5,78.4V42.35h-6.6l0.16,25.09h-0.06l-13.73-25.09h-7.62V78.4h6.59l-0.11-25.08h0.05l13.73,25.08H658.5z"/>
</g>
</svg>
