<?xml version="1.0" encoding="utf-8"?>
<!-- Generator: Adobe Illustrator 23.0.1, SVG Export Plug-In . SVG Version: 6.00 Build 0)  -->
<svg version="1.1" id="Capa_1" xmlns="http://www.w3.org/2000/svg" xmlns:xlink="http://www.w3.org/1999/xlink" x="0px" y="0px"
	 viewBox="0 0 455.82 47.07" style="enable-background:new 0 0 455.82 47.07;" xml:space="preserve">
<style type="text/css">
	.st0{fill:#FFFFFF;}
	.st1{fill:#00A19A;}
	.st2{fill:#A3195B;}
	.st3{fill:#492B47;}
	.st4{fill:#5BC5F2;}
	.st5{fill:#009798;}
	.st6{fill:#3A2C48;}
</style>
<g>
	<g>
		<g>
			<g>
				<polygon points="102.42,5.54 94.69,5.54 94.69,0.25 116.12,0.25 116.12,5.54 108.39,5.54 108.39,27.35 102.42,27.35 				"/>
				<g>
					<path d="M135.56,11.47h3.51c2.18,0,5.02-0.08,5.02-3.03c0-2.71-2.44-3.13-4.63-3.13h-3.9V11.47z M129.58,0.25h10.48
						c5.56,0,10.22,1.91,10.22,8.23c0,3.79-2.01,6.74-5.84,7.42l6.88,11.45h-7.15l-5.66-10.83h-2.94v10.83h-5.98V0.25z"/>
				</g>
				<polygon points="164.01,0.25 182.57,0.25 182.57,5.77 169.98,5.77 169.98,11.47 181.74,11.47 181.74,16.52 169.98,16.52 
					169.98,21.85 183.12,21.85 183.12,27.35 164.01,27.35 				"/>
				<polygon points="194.36,0.25 201.17,0.25 207.86,18.02 207.94,18.02 214.75,0.25 221.15,0.25 209.97,27.35 205.18,27.35 				"/>
				<rect x="234.63" y="0.25" width="5.96" height="27.1"/>
				<path d="M74.05,8.14l-3.3,8.41h6.63L74.05,8.14z M71.75,0.25h4.93l11.79,27.1h-6.74l-2.32-5.74H68.87l-2.26,5.74h-6.58
					L71.75,0.25z"/>
				<g>
					<path d="M270.2,15.2c-0.57,0.52-0.19,1.4-0.89,1.57l-6.42,0.01c0,0,0.25-0.9,0.43-1.14c0.39-0.52,1.29-0.83,2.55-1.38
						c2.98-1.28,1.02-2.46,0.31-3.51c-0.45-0.67-0.22-2.86,0.1-3.11c0.29-0.23,1.65,2.26,2.57,3.36c0.89,1.07,3.12,1.3,2.65,2.76
						C271.37,14.18,270.8,14.65,270.2,15.2 M276.21,15.5c0.4-0.3,1.62-0.83,1.63-2.1c0.02-0.87-0.95-1.41-1.75-2.01
						c-0.56-0.42-2.95-1.46-3.86-3.82l-4.51-7.31h-4.94l-2.11,7.9c-0.27,0.74-0.66,2-0.2,2.68c0.68,0.99,2.52,2.12-0.3,3.34
						c-1.53,0.66-2.49,0.94-2.8,1.62l-4.99,11.56h6.58l2.26-5.74h10.51l2.35,5.74h6.73l-4.86-9.8
						C275.76,17.05,275.17,16.29,276.21,15.5"/>
				</g>
				<polygon points="275.46,0.5 275.46,2.17 275.16,2.17 275.16,0.5 274.49,0.5 274.49,0.25 276.13,0.25 276.13,0.5 				"/>
				<g>
					<path d="M278.32,2.17h-0.31V1.23c0-0.22,0-0.48,0.01-0.68c-0.06,0.2-0.15,0.47-0.21,0.68l-0.3,0.94h-0.37l-0.31-0.94
						c-0.07-0.21-0.14-0.48-0.2-0.68c0,0.21,0,0.47,0,0.68v0.94h-0.3V0.25h0.51l0.49,1.63l0.49-1.63h0.49V2.17z"/>
				</g>
			</g>
		</g>
	</g>
	<g>
		<path d="M311.91,0.24c0.41,0,0.67,0,1.06,0.07c1.32,0.26,2.03,1.26,2.03,2.9c0,1.36-0.54,2.2-1.45,2.61
			c1.07,0.43,1.55,1.38,1.55,2.98c0,1.94-1.06,2.9-2.16,3.12c-0.41,0.09-0.67,0.09-1.08,0.09h-2.84V0.24H311.91z M310.31,5.26h1.55
			c0.21,0,0.41-0.02,0.63-0.07c0.73-0.15,1.12-0.78,1.12-1.74c0-1.04-0.45-1.58-1.11-1.69c-0.2-0.03-0.44-0.05-0.63-0.05h-1.56V5.26
			z M311.93,10.49c0.19,0,0.42,0,0.57-0.02c0.68-0.09,1.2-0.65,1.2-1.79c0-1.17-0.5-1.75-1.19-1.87c-0.25-0.05-0.44-0.05-0.63-0.05
			h-1.57v3.73H311.93z"/>
		<path d="M322.7,11.99h-5.69V0.24h5.57v1.48h-4.26v3.65h3.92v1.48h-3.92v3.65h4.38V11.99z"/>
		<path d="M331.3,8.45c-0.36,2.33-1.62,3.78-3.53,3.78c-2.35,0-3.79-2.49-3.79-6.07c0-3.7,1.63-6.17,3.93-6.17
			c2.06,0,3.16,1.62,3.45,3.76H330c-0.23-1.35-0.86-2.33-2.11-2.33c-1.51,0-2.49,1.87-2.49,4.65c0,2.91,0.98,4.72,2.43,4.72
			c1.19,0,1.91-1.02,2.11-2.35H331.3z"/>
		<path d="M334.34,8.11l-0.89,3.88h-1.39l2.96-11.75h1.69l2.87,11.75h-1.42l-0.91-3.88H334.34z M336.91,6.63l-1.08-4.84l-1.14,4.84
			H336.91z"/>
		<path d="M347.18,7.45c0,0.43,0,0.77-0.02,1.21c-0.12,1.96-1.06,3.58-3.21,3.58c-2.15,0-3.09-1.62-3.19-3.58
			c-0.02-0.44-0.02-0.78-0.02-1.21V0.24h1.3v7.24c0,0.36,0,0.68,0.02,0.95c0.08,1.41,0.72,2.37,1.9,2.37c1.19,0,1.82-0.95,1.91-2.37
			c0.02-0.27,0.02-0.6,0.02-0.95V0.24h1.3V7.45z"/>
		<path d="M350.21,8.59c0.21,1.45,0.93,2.21,1.9,2.21c0.86,0,1.54-0.6,1.54-1.72c0-1.09-0.5-1.72-1.84-2.16
			c-1.56-0.53-2.61-1.41-2.61-3.46c0-2.21,1.29-3.46,2.85-3.46c1.82,0,2.72,1.53,2.88,3.58h-1.36c-0.1-1.35-0.64-2.15-1.6-2.15
			c-0.77,0-1.4,0.61-1.4,1.7c0,1.16,0.5,1.74,1.78,2.15c1.81,0.61,2.67,1.77,2.67,3.65c0,2.13-1.32,3.31-2.92,3.31
			c-1.88,0-3.09-1.28-3.26-3.65H350.21z"/>
		<path d="M362.55,11.99h-5.69V0.24h5.57v1.48h-4.26v3.65h3.92v1.48h-3.92v3.65h4.38V11.99z"/>
		<path d="M371.41,1.72v10.27h-1.3V1.72h-2.87V0.24h7.05v1.48H371.41z"/>
		<path d="M382.97,6.12c0,3.63-1.44,6.12-3.96,6.12c-2.53,0-3.97-2.49-3.97-6.12c0-3.65,1.44-6.12,3.97-6.12
			C381.53,0,382.97,2.47,382.97,6.12z M381.56,6.12c0-2.93-0.95-4.69-2.55-4.69c-1.61,0-2.56,1.75-2.56,4.69
			c0,2.91,0.95,4.68,2.56,4.68C380.61,10.8,381.56,9.03,381.56,6.12z"/>
		<path d="M387.55,0.24c0.44,0,0.63,0,1.05,0.07c1.91,0.32,3.31,2.11,3.31,5.67c0,3.51-1.45,5.6-3.36,5.95
			c-0.42,0.07-0.61,0.07-1.05,0.07h-2.61V0.24H387.55z M387.38,10.49c0.41,0,0.68,0,0.94-0.07c1.32-0.27,2.18-1.84,2.18-4.45
			c0-2.47-0.82-3.9-2.13-4.17c-0.26-0.07-0.55-0.09-0.94-0.09h-1.23v8.77H387.38z"/>
		<path d="M394.95,8.11l-0.89,3.88h-1.39l2.96-11.75h1.69l2.87,11.75h-1.42l-0.91-3.88H394.95z M397.53,6.63l-1.08-4.84l-1.14,4.84
			H397.53z"/>
		<path d="M403.99,11.99h-1.3v-4.6l-2.91-7.15h1.49l2.12,5.43l2.05-5.43h1.45l-2.91,7.15V11.99z"/>
		<path d="M315.78,25.87c-0.36,2.33-1.62,3.78-3.53,3.78c-2.35,0-3.79-2.49-3.79-6.07c0-3.7,1.63-6.17,3.93-6.17
			c2.06,0,3.16,1.62,3.45,3.76h-1.36c-0.23-1.35-0.86-2.33-2.11-2.33c-1.51,0-2.49,1.87-2.49,4.65c0,2.91,0.98,4.72,2.43,4.72
			c1.19,0,1.91-1.02,2.11-2.35H315.78z"/>
		<path d="M325.03,23.53c0,3.63-1.44,6.12-3.96,6.12c-2.53,0-3.97-2.49-3.97-6.12c0-3.65,1.44-6.12,3.97-6.12
			C323.58,17.42,325.03,19.89,325.03,23.53z M323.62,23.53c0-2.93-0.95-4.69-2.55-4.69c-1.61,0-2.56,1.75-2.56,4.69
			c0,2.91,0.95,4.68,2.56,4.68C322.67,28.22,323.62,26.45,323.62,23.53z"/>
		<path d="M335.45,29.41h-1.3v-5.78c0-1.35,0-2.96,0.02-4.21c-0.25,1.24-0.6,2.86-0.89,4.19l-1.29,5.79h-1.57l-1.31-5.81
			c-0.3-1.31-0.64-2.91-0.87-4.16c0.02,1.26,0.02,2.85,0.02,4.19v5.78h-1.31V17.66h2.19l2.1,10.02l2.1-10.02h2.11V29.41z"/>
		<path d="M346.3,29.41H345v-5.78c0-1.35,0-2.96,0.02-4.21c-0.25,1.24-0.6,2.86-0.89,4.19l-1.29,5.79h-1.57l-1.31-5.81
			c-0.3-1.31-0.64-2.91-0.87-4.16c0.02,1.26,0.02,2.85,0.02,4.19v5.78h-1.31V17.66h2.19l2.1,10.02l2.1-10.02h2.11V29.41z"/>
		<path d="M355.02,24.86c0,0.43,0,0.77-0.02,1.21c-0.12,1.96-1.06,3.58-3.21,3.58c-2.15,0-3.09-1.62-3.19-3.58
			c-0.02-0.44-0.02-0.78-0.02-1.21v-7.21h1.3v7.24c0,0.36,0,0.68,0.02,0.95c0.08,1.41,0.72,2.37,1.9,2.37
			c1.19,0,1.82-0.95,1.91-2.37c0.02-0.27,0.02-0.6,0.02-0.95v-7.24h1.3V24.86z"/>
		<path d="M362.16,29.41l-3.65-9.69c0.04,1.35,0.05,2.86,0.05,4.07v5.62h-1.31V17.66h1.85l3.68,9.76c-0.02-1.33-0.04-2.9-0.04-4.11
			v-5.66h1.29v11.75H362.16z"/>
		<path d="M366.39,29.41V17.66h1.31v11.75H366.39z"/>
		<path d="M376.83,25.87c-0.36,2.33-1.62,3.78-3.53,3.78c-2.35,0-3.79-2.49-3.79-6.07c0-3.7,1.63-6.17,3.93-6.17
			c2.06,0,3.16,1.62,3.45,3.76h-1.36c-0.23-1.35-0.86-2.33-2.11-2.33c-1.51,0-2.49,1.87-2.49,4.65c0,2.91,0.98,4.72,2.43,4.72
			c1.19,0,1.91-1.02,2.11-2.35H376.83z"/>
		<path d="M379.87,25.53l-0.89,3.88h-1.39l2.96-11.75h1.69l2.87,11.75h-1.42l-0.91-3.88H379.87z M382.44,24.04l-1.08-4.84
			l-1.14,4.84H382.44z"/>
		<path d="M389.12,19.14v10.27h-1.3V19.14h-2.87v-1.48H392v1.48H389.12z"/>
		<path d="M393.45,29.41V17.66h1.31v11.75H393.45z"/>
		<path d="M404.49,23.53c0,3.63-1.44,6.12-3.96,6.12c-2.53,0-3.97-2.49-3.97-6.12c0-3.65,1.44-6.12,3.97-6.12
			C403.05,17.42,404.49,19.89,404.49,23.53z M403.09,23.53c0-2.93-0.95-4.69-2.55-4.69c-1.61,0-2.56,1.75-2.56,4.69
			c0,2.91,0.95,4.68,2.56,4.68C402.13,28.22,403.09,26.45,403.09,23.53z"/>
		<path d="M411.33,29.41l-3.65-9.69c0.04,1.35,0.05,2.86,0.05,4.07v5.62h-1.31V17.66h1.85l3.68,9.76c-0.02-1.33-0.04-2.9-0.04-4.11
			v-5.66h1.29v11.75H411.33z"/>
		<path d="M420.52,22.78h3.92v1.48h-3.92v5.14h-1.31V17.66h5.57v1.48h-4.26V22.78z"/>
		<path d="M427.5,25.53l-0.89,3.88h-1.39l2.96-11.75h1.69l2.87,11.75h-1.42l-0.91-3.88H427.5z M430.07,24.04l-1.08-4.84l-1.14,4.84
			H430.07z"/>
		<path d="M440.83,25.87c-0.36,2.33-1.62,3.78-3.53,3.78c-2.35,0-3.79-2.49-3.79-6.07c0-3.7,1.63-6.17,3.93-6.17
			c2.06,0,3.16,1.62,3.45,3.76h-1.36c-0.23-1.35-0.86-2.33-2.11-2.33c-1.51,0-2.49,1.87-2.49,4.65c0,2.91,0.98,4.72,2.43,4.72
			c1.19,0,1.91-1.02,2.11-2.35H440.83z"/>
		<path d="M448.38,29.41h-5.69V17.66h5.57v1.48H444v3.65h3.92v1.48H444v3.65h4.38V29.41z"/>
		<path d="M451,26c0.21,1.45,0.93,2.21,1.9,2.21c0.86,0,1.54-0.6,1.54-1.72c0-1.09-0.5-1.72-1.84-2.16
			c-1.56-0.53-2.61-1.41-2.61-3.46c0-2.21,1.29-3.46,2.85-3.46c1.82,0,2.72,1.53,2.88,3.58h-1.36c-0.1-1.35-0.64-2.15-1.6-2.15
			c-0.77,0-1.4,0.61-1.4,1.7c0,1.16,0.5,1.74,1.78,2.15c1.81,0.61,2.67,1.77,2.67,3.65c0,2.13-1.32,3.31-2.92,3.31
			c-1.88,0-3.09-1.28-3.25-3.65H451z"/>
		<path d="M313.92,46.83l-3.65-9.69c0.04,1.35,0.05,2.86,0.05,4.07v5.62h-1.31V35.07h1.85l3.68,9.76c-0.02-1.33-0.04-2.9-0.04-4.11
			v-5.66h1.29v11.75H313.92z"/>
		<path d="M323.85,46.83h-5.69V35.07h5.57v1.48h-4.26v3.65h3.92v1.48h-3.92v3.65h4.38V46.83z"/>
		<path d="M333.81,46.83h-1.73l-1.65-10.02l-1.73,10.02h-1.74l-2.12-11.75h1.44l1.57,10.24l1.7-10.07h1.8l1.66,10.09l1.67-10.26
			h1.36L333.81,46.83z"/>
		<path d="M347.99,43.28c-0.36,2.33-1.62,3.78-3.53,3.78c-2.35,0-3.79-2.49-3.79-6.07c0-3.7,1.63-6.17,3.93-6.17
			c2.06,0,3.16,1.62,3.45,3.76h-1.36c-0.23-1.35-0.86-2.33-2.11-2.33c-1.51,0-2.49,1.87-2.49,4.65c0,2.91,0.98,4.72,2.43,4.72
			c1.19,0,1.91-1.02,2.11-2.35H347.99z"/>
		<path d="M356.69,46.83h-1.3v-5.01h-4.22v5.01h-1.31V35.07h1.31v5.23h4.22v-5.23h1.3V46.83z"/>
		<path d="M360.47,42.94l-0.89,3.88h-1.39l2.96-11.75h1.69l2.87,11.75h-1.42l-0.91-3.88H360.47z M363.04,41.46l-1.08-4.84
			l-1.14,4.84H363.04z"/>
		<path d="M372.9,46.83h-5.69V35.07h1.31v10.2h4.38V46.83z"/>
		<path d="M380.27,46.83h-5.69V35.07h1.31v10.2h4.38V46.83z"/>
		<path d="M387.64,46.83h-5.69V35.07h5.57v1.48h-4.26v3.65h3.92v1.48h-3.92v3.65h4.38V46.83z"/>
		<path d="M394.38,46.83l-3.65-9.69c0.04,1.35,0.05,2.86,0.05,4.07v5.62h-1.31V35.07h1.85l3.68,9.76c-0.02-1.33-0.04-2.9-0.04-4.11
			v-5.66h1.29v11.75H394.38z"/>
		<path d="M405.42,41v5.83h-1.1l-0.05-1.94l-0.37,1.16c-0.46,0.7-1.19,1.02-2.11,1.02c-2.35,0-3.73-2.49-3.73-6.07
			c0-3.7,1.66-6.17,3.96-6.17c2.06,0,3.17,1.62,3.46,3.78h-1.36c-0.23-1.36-0.87-2.35-2.12-2.35c-1.51,0-2.52,1.87-2.52,4.65
			c0,2.91,0.99,4.72,2.46,4.72c1.25,0,2.13-1.24,2.21-3.13h-1.87V41H405.42z"/>
		<path d="M413.27,46.83h-5.69V35.07h5.57v1.48h-4.26v3.65h3.92v1.48h-3.92v3.65h4.38V46.83z"/>
		<path d="M415.89,43.42c0.21,1.45,0.93,2.21,1.9,2.21c0.86,0,1.54-0.6,1.54-1.72c0-1.09-0.5-1.72-1.84-2.16
			c-1.56-0.53-2.61-1.41-2.61-3.46c0-2.21,1.29-3.46,2.85-3.46c1.82,0,2.72,1.53,2.88,3.58h-1.36c-0.1-1.35-0.64-2.15-1.6-2.15
			c-0.77,0-1.4,0.61-1.4,1.7c0,1.16,0.5,1.74,1.78,2.15c1.81,0.61,2.67,1.77,2.67,3.65c0,2.13-1.32,3.31-2.92,3.31
			c-1.88,0-3.09-1.28-3.26-3.65H415.89z"/>
	</g>
	<g>
		<path d="M294.24,46.84V0.25h1.31v46.59H294.24z"/>
	</g>
	<g>
		<defs>
			<path id="SVGID_1_" d="M64.77,33.1c-4.74,0-4.74,4.74-4.74,4.74v8.99h216.04c4.74,0,4.74-4.74,4.74-4.74V33.1H64.77z"/>
		</defs>
		<linearGradient id="SVGID_2_" gradientUnits="userSpaceOnUse" x1="60.0257" y1="39.9692" x2="280.8092" y2="39.9692">
			<stop  offset="0" style="stop-color:#A3195B"/>
			<stop  offset="0.0358" style="stop-color:#A11D5F"/>
			<stop  offset="0.0866" style="stop-color:#9B2469"/>
			<stop  offset="0.1458" style="stop-color:#912D79"/>
			<stop  offset="0.2" style="stop-color:#82368C"/>
			<stop  offset="0.36" style="stop-color:#1C9EA3"/>
			<stop  offset="0.64" style="stop-color:#00A19A"/>
			<stop  offset="0.659" style="stop-color:#05A8AB"/>
			<stop  offset="0.6889" style="stop-color:#2DB0C1"/>
			<stop  offset="0.7226" style="stop-color:#40B8D3"/>
			<stop  offset="0.7609" style="stop-color:#4DBEE1"/>
			<stop  offset="0.8065" style="stop-color:#55C2EB"/>
			<stop  offset="0.8669" style="stop-color:#59C4F0"/>
			<stop  offset="1" style="stop-color:#5AC5F2"/>
		</linearGradient>
		<use xlink:href="#SVGID_1_"  style="overflow:visible;fill:url(#SVGID_2_);"/>
		<clipPath id="SVGID_3_">
			<use xlink:href="#SVGID_1_"  style="overflow:visible;"/>
		</clipPath>
	</g>
	<g>
		<path class="st0" d="M76.77,37.19h1.15l2.74,6.31H79.1l-0.54-1.34H76.1l-0.53,1.34h-1.53L76.77,37.19z M77.31,39.02l-0.77,1.96
			h1.54L77.31,39.02z"/>
		<path class="st0" d="M86.93,43.05c-0.41,0.21-0.84,0.37-1.28,0.46c-0.45,0.09-0.9,0.14-1.36,0.14c-0.49,0-0.95-0.08-1.36-0.23
			c-0.42-0.15-0.77-0.38-1.08-0.66c-0.3-0.29-0.54-0.64-0.71-1.05c-0.17-0.41-0.25-0.87-0.25-1.37s0.08-0.96,0.25-1.37
			c0.17-0.41,0.4-0.76,0.71-1.05c0.3-0.29,0.66-0.51,1.08-0.66c0.42-0.15,0.87-0.23,1.36-0.23c0.5,0,0.97,0.06,1.39,0.18
			c0.42,0.12,0.8,0.33,1.12,0.63l-0.98,1.07c-0.19-0.2-0.4-0.34-0.64-0.44c-0.24-0.1-0.53-0.15-0.89-0.15
			c-0.3,0-0.57,0.05-0.81,0.15c-0.24,0.1-0.45,0.24-0.62,0.42c-0.17,0.18-0.3,0.4-0.4,0.65c-0.09,0.25-0.14,0.52-0.14,0.81
			c0,0.3,0.05,0.57,0.14,0.81c0.09,0.25,0.22,0.46,0.4,0.64c0.17,0.18,0.38,0.32,0.62,0.42c0.24,0.1,0.51,0.15,0.81,0.15
			c0.3,0,0.56-0.03,0.78-0.1c0.22-0.07,0.39-0.14,0.53-0.21v-1.02h-1.13v-1.28h2.47V43.05z"/>
		<path class="st0" d="M88.13,37.19h4.28v1.28h-2.89v1.18h2.73v1.28h-2.73v1.28h3.05v1.28h-4.44V37.19z"/>
		<path class="st0" d="M93.62,37.19h1.89l2.68,4.38h0.02v-4.38h1.39v6.31h-1.82L95.03,39h-0.02v4.49h-1.39V37.19z"/>
		<path class="st0" d="M104.93,38.82c-0.14-0.17-0.3-0.29-0.5-0.38c-0.2-0.09-0.43-0.13-0.69-0.13c-0.26,0-0.5,0.05-0.73,0.15
			c-0.22,0.1-0.42,0.24-0.58,0.42c-0.16,0.18-0.29,0.4-0.38,0.65c-0.09,0.25-0.14,0.52-0.14,0.81c0,0.3,0.05,0.57,0.14,0.81
			c0.09,0.25,0.22,0.46,0.38,0.64c0.16,0.18,0.35,0.32,0.57,0.42c0.22,0.1,0.45,0.15,0.7,0.15c0.28,0,0.54-0.06,0.76-0.18
			c0.22-0.12,0.4-0.28,0.54-0.5l1.16,0.86c-0.27,0.37-0.61,0.65-1.02,0.83c-0.41,0.18-0.83,0.27-1.26,0.27
			c-0.49,0-0.95-0.08-1.36-0.23c-0.42-0.15-0.77-0.38-1.08-0.66c-0.3-0.29-0.54-0.64-0.71-1.05c-0.17-0.41-0.25-0.87-0.25-1.37
			s0.08-0.96,0.25-1.37c0.17-0.41,0.41-0.76,0.71-1.05c0.3-0.29,0.66-0.51,1.08-0.66c0.42-0.15,0.87-0.23,1.36-0.23
			c0.18,0,0.36,0.02,0.56,0.05c0.19,0.03,0.38,0.08,0.57,0.16c0.19,0.07,0.37,0.17,0.54,0.28c0.17,0.12,0.33,0.26,0.46,0.44
			L104.93,38.82z"/>
		<path class="st0" d="M108.39,40.8l-2.37-3.62h1.73l1.34,2.36l1.42-2.36h1.65l-2.37,3.62v2.69h-1.39V40.8z"/>
		<path class="st0" d="M129.91,38.82c-0.14-0.17-0.3-0.29-0.5-0.38c-0.2-0.09-0.43-0.13-0.69-0.13c-0.26,0-0.5,0.05-0.73,0.15
			c-0.22,0.1-0.42,0.24-0.58,0.42c-0.16,0.18-0.29,0.4-0.38,0.65c-0.09,0.25-0.14,0.52-0.14,0.81c0,0.3,0.05,0.57,0.14,0.81
			c0.09,0.25,0.22,0.46,0.38,0.64c0.16,0.18,0.35,0.32,0.57,0.42c0.22,0.1,0.45,0.15,0.7,0.15c0.28,0,0.54-0.06,0.76-0.18
			c0.22-0.12,0.4-0.28,0.54-0.5l1.16,0.86c-0.27,0.37-0.61,0.65-1.02,0.83c-0.41,0.18-0.83,0.27-1.26,0.27
			c-0.49,0-0.95-0.08-1.36-0.23c-0.42-0.15-0.77-0.38-1.08-0.66c-0.3-0.29-0.54-0.64-0.71-1.05c-0.17-0.41-0.25-0.87-0.25-1.37
			s0.08-0.96,0.25-1.37c0.17-0.41,0.41-0.76,0.71-1.05c0.3-0.29,0.66-0.51,1.08-0.66c0.42-0.15,0.87-0.23,1.36-0.23
			c0.18,0,0.36,0.02,0.56,0.05c0.19,0.03,0.38,0.08,0.57,0.16c0.19,0.07,0.37,0.17,0.54,0.28c0.17,0.12,0.33,0.26,0.46,0.44
			L129.91,38.82z"/>
		<path class="st0" d="M131.48,40.34c0-0.5,0.08-0.96,0.25-1.37c0.17-0.41,0.41-0.76,0.71-1.05c0.3-0.29,0.66-0.51,1.08-0.66
			c0.42-0.15,0.87-0.23,1.36-0.23c0.49,0,0.95,0.08,1.36,0.23c0.42,0.15,0.77,0.38,1.08,0.66c0.3,0.29,0.54,0.64,0.71,1.05
			c0.17,0.41,0.25,0.87,0.25,1.37s-0.08,0.96-0.25,1.37c-0.17,0.41-0.41,0.76-0.71,1.05c-0.3,0.29-0.66,0.51-1.08,0.66
			c-0.42,0.15-0.87,0.23-1.36,0.23c-0.49,0-0.95-0.08-1.36-0.23c-0.42-0.15-0.77-0.38-1.08-0.66c-0.3-0.29-0.54-0.64-0.71-1.05
			C131.56,41.3,131.48,40.84,131.48,40.34z M132.92,40.34c0,0.3,0.05,0.57,0.14,0.81c0.09,0.25,0.22,0.46,0.4,0.64
			c0.17,0.18,0.38,0.32,0.62,0.42c0.24,0.1,0.51,0.15,0.81,0.15c0.3,0,0.57-0.05,0.81-0.15c0.24-0.1,0.45-0.24,0.62-0.42
			c0.17-0.18,0.3-0.39,0.4-0.64c0.09-0.25,0.14-0.52,0.14-0.81c0-0.29-0.05-0.56-0.14-0.81c-0.09-0.25-0.22-0.46-0.4-0.65
			c-0.17-0.18-0.38-0.32-0.62-0.42c-0.24-0.1-0.51-0.15-0.81-0.15c-0.3,0-0.57,0.05-0.81,0.15c-0.24,0.1-0.45,0.24-0.62,0.42
			c-0.17,0.18-0.3,0.4-0.4,0.65C132.97,39.78,132.92,40.05,132.92,40.34z"/>
		<path class="st0" d="M139.16,37.19h1.89l2.68,4.38h0.02v-4.38h1.39v6.31h-1.82L140.56,39h-0.02v4.49h-1.39V37.19z"/>
		<path class="st0" d="M149.46,38.73c-0.11-0.14-0.27-0.25-0.46-0.32c-0.19-0.07-0.38-0.1-0.55-0.1c-0.1,0-0.21,0.01-0.31,0.04
			c-0.11,0.02-0.21,0.06-0.3,0.11c-0.09,0.05-0.17,0.12-0.23,0.2c-0.06,0.08-0.09,0.18-0.09,0.3c0,0.19,0.07,0.34,0.21,0.44
			c0.14,0.1,0.32,0.19,0.54,0.26c0.22,0.07,0.45,0.14,0.7,0.21c0.25,0.07,0.48,0.17,0.7,0.3c0.22,0.13,0.4,0.31,0.54,0.53
			c0.14,0.22,0.21,0.51,0.21,0.88c0,0.35-0.07,0.66-0.2,0.92c-0.13,0.26-0.31,0.48-0.53,0.65c-0.22,0.17-0.48,0.3-0.77,0.38
			c-0.29,0.08-0.6,0.12-0.93,0.12c-0.41,0-0.79-0.06-1.14-0.19c-0.35-0.12-0.68-0.33-0.98-0.61l0.99-1.09
			c0.14,0.19,0.32,0.34,0.54,0.44c0.22,0.1,0.44,0.16,0.67,0.16c0.11,0,0.23-0.01,0.34-0.04c0.12-0.03,0.22-0.07,0.31-0.12
			c0.09-0.05,0.17-0.12,0.22-0.2c0.06-0.08,0.08-0.18,0.08-0.29c0-0.19-0.07-0.34-0.22-0.45c-0.15-0.11-0.33-0.2-0.55-0.28
			c-0.22-0.08-0.46-0.15-0.71-0.23c-0.26-0.08-0.49-0.18-0.71-0.31c-0.22-0.13-0.4-0.3-0.55-0.52c-0.15-0.21-0.22-0.5-0.22-0.85
			c0-0.34,0.07-0.63,0.2-0.89c0.13-0.25,0.31-0.47,0.53-0.64c0.22-0.17,0.48-0.3,0.77-0.39c0.29-0.09,0.59-0.13,0.9-0.13
			c0.36,0,0.7,0.05,1.03,0.15c0.33,0.1,0.63,0.27,0.9,0.51L149.46,38.73z"/>
		<path class="st0" d="M156.7,41.06c0,0.37-0.06,0.72-0.17,1.03c-0.11,0.31-0.28,0.59-0.5,0.82c-0.22,0.23-0.5,0.41-0.83,0.54
			c-0.33,0.13-0.72,0.2-1.15,0.2c-0.44,0-0.83-0.06-1.16-0.2c-0.33-0.13-0.61-0.31-0.83-0.54c-0.22-0.23-0.39-0.51-0.5-0.82
			c-0.11-0.31-0.17-0.66-0.17-1.03v-3.87h1.39v3.82c0,0.2,0.03,0.38,0.09,0.54c0.06,0.17,0.15,0.31,0.26,0.43
			c0.11,0.12,0.25,0.22,0.41,0.28c0.16,0.07,0.33,0.1,0.51,0.1c0.18,0,0.35-0.03,0.51-0.1c0.15-0.07,0.29-0.16,0.4-0.28
			c0.11-0.12,0.2-0.27,0.26-0.43c0.06-0.17,0.09-0.35,0.09-0.54v-3.82h1.39V41.06z"/>
		<path class="st0" d="M157.96,37.19h1.39v5.02h2.57v1.28h-3.96V37.19z"/>
		<path class="st0" d="M163.02,38.42h-1.8v-1.23h4.99v1.23h-1.8v5.08h-1.39V38.42z"/>
		<path class="st0" d="M168.1,37.19h1.15l2.74,6.31h-1.57l-0.54-1.34h-2.45l-0.53,1.34h-1.53L168.1,37.19z M168.63,39.02l-0.77,1.96
			h1.54L168.63,39.02z"/>
		<path class="st0" d="M172.55,37.19h1.89l2.68,4.38h0.02v-4.38h1.39v6.31h-1.82L173.96,39h-0.02v4.49h-1.39V37.19z"/>
		<path class="st0" d="M183.86,38.82c-0.14-0.17-0.3-0.29-0.5-0.38c-0.2-0.09-0.43-0.13-0.69-0.13c-0.26,0-0.5,0.05-0.73,0.15
			c-0.22,0.1-0.42,0.24-0.58,0.42c-0.16,0.18-0.29,0.4-0.38,0.65c-0.09,0.25-0.14,0.52-0.14,0.81c0,0.3,0.05,0.57,0.14,0.81
			c0.09,0.25,0.22,0.46,0.38,0.64c0.16,0.18,0.35,0.32,0.57,0.42c0.22,0.1,0.45,0.15,0.7,0.15c0.28,0,0.54-0.06,0.76-0.18
			c0.22-0.12,0.4-0.28,0.54-0.5l1.16,0.86c-0.27,0.37-0.61,0.65-1.02,0.83c-0.41,0.18-0.83,0.27-1.26,0.27
			c-0.49,0-0.95-0.08-1.36-0.23c-0.42-0.15-0.77-0.38-1.08-0.66c-0.3-0.29-0.54-0.64-0.71-1.05c-0.17-0.41-0.25-0.87-0.25-1.37
			s0.08-0.96,0.25-1.37c0.17-0.41,0.4-0.76,0.71-1.05c0.3-0.29,0.66-0.51,1.08-0.66c0.42-0.15,0.87-0.23,1.36-0.23
			c0.18,0,0.36,0.02,0.56,0.05c0.19,0.03,0.38,0.08,0.57,0.16c0.19,0.07,0.37,0.17,0.54,0.28c0.17,0.12,0.33,0.26,0.46,0.44
			L183.86,38.82z"/>
		<path class="st0" d="M187.32,40.8l-2.37-3.62h1.73l1.34,2.36l1.42-2.36h1.65l-2.37,3.62v2.69h-1.39V40.8z"/>
		<path class="st0" d="M205.94,38.42h-1.8v-1.23h4.99v1.23h-1.8v5.08h-1.39V38.42z"/>
		<path class="st0" d="M209.81,37.19h4.28v1.28h-2.89v1.18h2.73v1.28h-2.73v1.28h3.05v1.28h-4.44V37.19z"/>
		<path class="st0" d="M219.42,38.82c-0.14-0.17-0.3-0.29-0.5-0.38c-0.2-0.09-0.43-0.13-0.69-0.13c-0.26,0-0.5,0.05-0.73,0.15
			c-0.22,0.1-0.42,0.24-0.58,0.42c-0.16,0.18-0.29,0.4-0.38,0.65c-0.09,0.25-0.14,0.52-0.14,0.81c0,0.3,0.05,0.57,0.14,0.81
			c0.09,0.25,0.22,0.46,0.38,0.64c0.16,0.18,0.35,0.32,0.57,0.42c0.22,0.1,0.45,0.15,0.7,0.15c0.28,0,0.54-0.06,0.76-0.18
			c0.22-0.12,0.4-0.28,0.54-0.5l1.16,0.86c-0.27,0.37-0.61,0.65-1.02,0.83c-0.41,0.18-0.83,0.27-1.26,0.27
			c-0.49,0-0.95-0.08-1.36-0.23c-0.42-0.15-0.77-0.38-1.08-0.66c-0.3-0.29-0.54-0.64-0.71-1.05c-0.17-0.41-0.25-0.87-0.25-1.37
			s0.08-0.96,0.25-1.37c0.17-0.41,0.4-0.76,0.71-1.05c0.3-0.29,0.66-0.51,1.08-0.66c0.42-0.15,0.87-0.23,1.36-0.23
			c0.18,0,0.36,0.02,0.56,0.05c0.19,0.03,0.38,0.08,0.57,0.16c0.19,0.07,0.37,0.17,0.54,0.28c0.17,0.12,0.33,0.26,0.46,0.44
			L219.42,38.82z"/>
		<path class="st0" d="M221.33,37.19h1.39v2.35h2.7v-2.35h1.39v6.31h-1.39v-2.73h-2.7v2.73h-1.39V37.19z"/>
		<path class="st0" d="M228.01,37.19h1.89l2.68,4.38h0.02v-4.38h1.39v6.31h-1.82L229.42,39h-0.02v4.49h-1.39V37.19z"/>
		<path class="st0" d="M234.86,40.34c0-0.5,0.08-0.96,0.25-1.37c0.17-0.41,0.41-0.76,0.71-1.05c0.3-0.29,0.66-0.51,1.08-0.66
			c0.42-0.15,0.87-0.23,1.36-0.23c0.49,0,0.95,0.08,1.36,0.23c0.42,0.15,0.77,0.38,1.08,0.66c0.3,0.29,0.54,0.64,0.71,1.05
			c0.17,0.41,0.25,0.87,0.25,1.37s-0.08,0.96-0.25,1.37c-0.17,0.41-0.4,0.76-0.71,1.05c-0.3,0.29-0.66,0.51-1.08,0.66
			c-0.42,0.15-0.87,0.23-1.36,0.23c-0.49,0-0.95-0.08-1.36-0.23c-0.42-0.15-0.77-0.38-1.08-0.66c-0.3-0.29-0.54-0.64-0.71-1.05
			C234.95,41.3,234.86,40.84,234.86,40.34z M236.31,40.34c0,0.3,0.05,0.57,0.14,0.81c0.09,0.25,0.22,0.46,0.4,0.64
			c0.17,0.18,0.38,0.32,0.62,0.42c0.24,0.1,0.51,0.15,0.81,0.15c0.3,0,0.57-0.05,0.81-0.15c0.24-0.1,0.45-0.24,0.62-0.42
			c0.17-0.18,0.3-0.39,0.4-0.64c0.09-0.25,0.14-0.52,0.14-0.81c0-0.29-0.05-0.56-0.14-0.81c-0.09-0.25-0.22-0.46-0.4-0.65
			c-0.17-0.18-0.38-0.32-0.62-0.42c-0.24-0.1-0.51-0.15-0.81-0.15c-0.3,0-0.57,0.05-0.81,0.15c-0.24,0.1-0.45,0.24-0.62,0.42
			c-0.17,0.18-0.3,0.4-0.4,0.65C236.35,39.78,236.31,40.05,236.31,40.34z"/>
		<path class="st0" d="M242.59,37.19h1.39v5.02h2.57v1.28h-3.96V37.19z"/>
		<path class="st0" d="M246.91,40.34c0-0.5,0.08-0.96,0.25-1.37c0.17-0.41,0.41-0.76,0.71-1.05c0.3-0.29,0.66-0.51,1.08-0.66
			c0.42-0.15,0.87-0.23,1.36-0.23c0.49,0,0.95,0.08,1.36,0.23c0.42,0.15,0.77,0.38,1.08,0.66c0.3,0.29,0.54,0.64,0.71,1.05
			c0.17,0.41,0.25,0.87,0.25,1.37s-0.08,0.96-0.25,1.37c-0.17,0.41-0.4,0.76-0.71,1.05c-0.3,0.29-0.66,0.51-1.08,0.66
			c-0.42,0.15-0.87,0.23-1.36,0.23c-0.49,0-0.95-0.08-1.36-0.23c-0.42-0.15-0.77-0.38-1.08-0.66c-0.3-0.29-0.54-0.64-0.71-1.05
			C247,41.3,246.91,40.84,246.91,40.34z M248.35,40.34c0,0.3,0.05,0.57,0.14,0.81c0.09,0.25,0.22,0.46,0.4,0.64
			c0.17,0.18,0.38,0.32,0.62,0.42c0.24,0.1,0.51,0.15,0.81,0.15c0.3,0,0.57-0.05,0.81-0.15c0.24-0.1,0.45-0.24,0.62-0.42
			c0.17-0.18,0.3-0.39,0.4-0.64c0.09-0.25,0.14-0.52,0.14-0.81c0-0.29-0.05-0.56-0.14-0.81c-0.09-0.25-0.22-0.46-0.4-0.65
			c-0.17-0.18-0.38-0.32-0.62-0.42c-0.24-0.1-0.51-0.15-0.81-0.15c-0.3,0-0.57,0.05-0.81,0.15c-0.24,0.1-0.45,0.24-0.62,0.42
			c-0.17,0.18-0.3,0.4-0.4,0.65C248.4,39.78,248.35,40.05,248.35,40.34z"/>
		<path class="st0" d="M260.3,43.05c-0.41,0.21-0.84,0.37-1.28,0.46c-0.45,0.09-0.9,0.14-1.36,0.14c-0.49,0-0.95-0.08-1.36-0.23
			c-0.42-0.15-0.77-0.38-1.08-0.66c-0.3-0.29-0.54-0.64-0.71-1.05c-0.17-0.41-0.25-0.87-0.25-1.37s0.08-0.96,0.25-1.37
			c0.17-0.41,0.41-0.76,0.71-1.05c0.3-0.29,0.66-0.51,1.08-0.66c0.42-0.15,0.87-0.23,1.36-0.23c0.5,0,0.97,0.06,1.39,0.18
			c0.42,0.12,0.8,0.33,1.12,0.63l-0.98,1.07c-0.19-0.2-0.4-0.34-0.64-0.44c-0.24-0.1-0.53-0.15-0.89-0.15
			c-0.3,0-0.57,0.05-0.81,0.15c-0.24,0.1-0.45,0.24-0.62,0.42c-0.17,0.18-0.3,0.4-0.4,0.65c-0.09,0.25-0.14,0.52-0.14,0.81
			c0,0.3,0.05,0.57,0.14,0.81c0.09,0.25,0.22,0.46,0.4,0.64c0.17,0.18,0.38,0.32,0.62,0.42c0.24,0.1,0.51,0.15,0.81,0.15
			c0.3,0,0.56-0.03,0.78-0.1c0.22-0.07,0.39-0.14,0.53-0.21v-1.02h-1.13v-1.28h2.47V43.05z"/>
		<path class="st0" d="M262.99,40.8l-2.37-3.62h1.73l1.34,2.36l1.42-2.36h1.65l-2.37,3.62v2.69h-1.39V40.8z"/>
	</g>
	<g>
		<path class="st1" d="M39.36,0.25H20.91c0,0-6,0-7.05,5.48h6.96c0,0,6.57,0,6.57,6.57v7.12h7.12c0,0,6.57,0,6.57,6.57v6.89
			c2.13-0.5,5.48-2.06,5.48-6.98V7.46C46.57,7.46,46.57,0.25,39.36,0.25z"/>
		<path class="st2" d="M27.39,33.12H13.7v7.12c0,6.57,6.57,6.57,6.57,6.57h14.25c6.57,0,6.57-6.57,6.57-6.57v-7.36
			c-1,0.23-1.73,0.23-1.73,0.23H27.39z"/>
		<path class="st3" d="M34.52,19.43h-7.12v13.7h11.96c0,0,0.73,0,1.73-0.23V26C41.09,19.43,34.52,19.43,34.52,19.43z"/>
		<path class="st4" d="M13.7,7.46c0-0.63,0.06-1.21,0.16-1.73H6.57C0,5.73,0,12.3,0,12.3v14.25c0,6.57,6.57,6.57,6.57,6.57h7.12
			v-13.7V7.46z"/>
		<path class="st5" d="M13.7,19.43h13.7V12.3c0-6.57-6.57-6.57-6.57-6.57h-6.96c-0.1,0.53-0.16,1.1-0.16,1.73V19.43z"/>
		<rect x="13.7" y="19.43" class="st6" width="13.7" height="13.7"/>
	</g>
</g>
</svg>
