<?xml version="1.0" encoding="utf-8"?>
<!-- Generator: Adobe Illustrator 24.0.2, SVG Export Plug-In . SVG Version: 6.00 Build 0)  -->
<svg version="1.1" id="Layer_1" xmlns="http://www.w3.org/2000/svg" xmlns:xlink="http://www.w3.org/1999/xlink" x="0px" y="0px"
	 viewBox="0 0 191.7 81" style="enable-background:new 0 0 191.7 81;" xml:space="preserve">
<style type="text/css">
	.st0{fill:#003940;}
</style>
<g>
	<g>
		<path class="st0" d="M10.5,12.4l6.1,9.8h-4.5l-5.9-9.5H4.1v9.5H0V0.2h8c4.3,0,6.7,2.5,6.7,6.2C14.6,9.4,13.2,11.6,10.5,12.4z M8,9
			c1.7,0,2.6-0.8,2.6-2.5C10.6,4.8,9.7,4,8,4H4.1V9H8z"/>
		<path class="st0" d="M32.6,22.2h-3.9v-2.5c-1.3,1.8-2.9,2.8-4.9,2.8c-2.9,0-4.9-1.7-4.9-4.8V6.4h3.9v10.1c0,1.7,0.8,2.6,2.3,2.6
			c2,0,3.6-2.4,3.6-6.4V6.4h3.9V22.2z"/>
		<path class="st0" d="M47.2,7.8V0h3.9v22.2h-3.9v-1.6c-0.5,0.9-2,1.9-3.8,1.9c-4.6,0-7.2-3.2-7.2-8.1c0-5,2.6-8.1,7.2-8.1
			C44.9,6.1,46.5,6.9,47.2,7.8z M40.3,14.3c0,1.5,0.3,2.7,1,3.5c0.7,0.8,1.6,1.3,2.6,1.3s1.9-0.4,2.6-1.3c0.7-0.8,1-2,1-3.6
			s-0.3-2.7-1-3.5c-0.7-0.8-1.5-1.3-2.6-1.3s-1.9,0.4-2.6,1.3S40.3,12.8,40.3,14.3z"/>
		<path class="st0" d="M67.8,13.6v8.6h-4.1V0.2H72c4.5,0,6.9,2.7,6.9,6.7s-2.4,6.7-6.9,6.7H67.8z M71.8,9.8c1.9,0,2.9-1,2.9-2.9
			S73.7,4,71.8,4h-4v5.8H71.8z"/>
		<path class="st0" d="M95.3,15.5H84.4c0.1,1.9,1.5,3.6,3.7,3.6c1.6,0,2.9-0.8,3.8-2.4l3.1,1.2c-1.3,3.1-3.7,4.6-7.2,4.6
			c-5.4,0-7.6-4.4-7.6-8.1c0-3.8,2.2-8.1,7.6-8.1c2.5,0,4.5,1,5.7,2.6c1.1,1.5,1.7,3.4,1.7,5.2V15.5z M84.5,12.5h6.8
			c-0.4-2-1.6-3-3.4-3C86.1,9.5,84.8,10.8,84.5,12.5z"/>
		<path class="st0" d="M108.9,7.8V0h3.9v22.2h-3.9v-1.6c-0.5,0.9-2,1.9-3.8,1.9c-4.6,0-7.2-3.2-7.2-8.1c0-5,2.6-8.1,7.2-8.1
			C106.7,6.1,108.2,6.9,108.9,7.8z M102,14.3c0,1.5,0.3,2.7,1,3.5c0.7,0.8,1.6,1.3,2.6,1.3c1.1,0,1.9-0.4,2.6-1.3c0.7-0.8,1-2,1-3.6
			s-0.3-2.7-1-3.5c-0.7-0.8-1.5-1.3-2.6-1.3c-1.1,0-1.9,0.4-2.6,1.3S102,12.8,102,14.3z"/>
		<path class="st0" d="M131.1,15.5h-10.9c0.1,1.9,1.5,3.6,3.7,3.6c1.6,0,2.9-0.8,3.8-2.4l3.1,1.2c-1.3,3.1-3.7,4.6-7.2,4.6
			c-5.4,0-7.6-4.4-7.6-8.1c0-3.8,2.2-8.1,7.6-8.1c2.5,0,4.5,1,5.7,2.6c1.1,1.5,1.7,3.4,1.7,5.2V15.5z M120.3,12.5h6.8
			c-0.4-2-1.6-3-3.4-3C121.9,9.5,120.6,10.8,120.3,12.5z"/>
		<path class="st0" d="M138.4,22.2h-3.9V6.4h3.9V9c1.1-1.8,2.8-2.8,4.7-2.8c0.6,0,1.2,0.1,1.9,0.3l-0.7,3.6c-0.5-0.3-1-0.4-1.6-0.4
			c-2.5,0-4.2,2.2-4.2,6.9V22.2z"/>
		<path class="st0" d="M157,8.7l-2.3,2.1c-0.7-0.9-1.6-1.4-2.6-1.4c-0.8,0-1.4,0.5-1.4,1.3c0,0.7,0.5,1.2,1.5,1.5l1.1,0.4l1.3,0.5
			c0.2,0.1,0.6,0.3,1.1,0.6c0.5,0.3,0.9,0.5,1.1,0.8c0.5,0.5,1,1.5,1,2.6c0,1.5-0.5,2.7-1.6,3.7c-1,1-2.4,1.5-4,1.5
			c-1.5,0-2.8-0.4-3.9-1.3c-1.1-0.8-1.9-1.8-2.3-3l3.1-1.7c0.6,1.7,1.7,2.6,3.2,2.6c1.3,0,1.9-0.6,1.9-1.7c0-0.5-0.2-0.9-0.8-1.2
			c-0.3-0.2-0.6-0.3-0.9-0.4c-0.5-0.3-1.6-0.6-2.2-0.8c-2-0.8-3.2-2-3.2-4.3c0-1.3,0.5-2.3,1.4-3.3c0.9-0.9,2.2-1.3,3.6-1.3
			C154.2,6.1,156,7.2,157,8.7z"/>
		<path class="st0" d="M175,15.5h-10.9c0.1,1.9,1.5,3.6,3.7,3.6c1.6,0,2.9-0.8,3.8-2.4l3.1,1.2c-1.3,3.1-3.7,4.6-7.2,4.6
			c-5.4,0-7.6-4.4-7.6-8.1c0-3.8,2.2-8.1,7.6-8.1c2.5,0,4.5,1,5.7,2.6c1.1,1.5,1.7,3.4,1.7,5.2V15.5z M164.2,12.5h6.8
			c-0.4-2-1.6-3-3.4-3C165.8,9.5,164.5,10.8,164.2,12.5z"/>
		<path class="st0" d="M178.1,6.4h3.9v2.5c1.3-1.8,2.9-2.8,4.9-2.8c2.9,0,4.9,1.7,4.9,4.8v11.3h-3.9V12c0-1.7-0.8-2.6-2.3-2.6
			c-2,0-3.6,2.4-3.6,6.4v6.3h-3.9V6.4z"/>
		<path class="st0" d="M4.1,49.9v8.6H0V36.5h8.3c4.5,0,6.9,2.7,6.9,6.7s-2.4,6.7-6.9,6.7H4.1z M8.1,46.1c1.9,0,2.9-1,2.9-2.9
			s-1-2.9-2.9-2.9h-4v5.8H8.1z"/>
		<path class="st0" d="M31.4,58.5h-3.9v-2.5c-1.3,1.8-2.9,2.8-4.9,2.8c-2.9,0-4.9-1.7-4.9-4.8V42.7h3.9v10.1c0,1.7,0.8,2.6,2.3,2.6
			c2,0,3.6-2.4,3.6-6.4v-6.3h3.9V58.5z"/>
		<path class="st0" d="M39.3,56.8v1.6h-3.9V36.3h3.9v7.8c0.7-0.9,2.3-1.7,3.8-1.7c4.6,0,7.2,3.2,7.2,8.1c0,5-2.6,8.1-7.2,8.1
			C41.3,58.7,39.8,57.7,39.3,56.8z M46.2,50.6c0-1.5-0.3-2.7-1-3.5s-1.6-1.3-2.6-1.3s-1.9,0.4-2.6,1.3c-0.7,0.8-1,2-1,3.5
			s0.3,2.7,1,3.6c0.7,0.8,1.6,1.3,2.6,1.3s1.9-0.4,2.6-1.3C45.9,53.3,46.2,52.1,46.2,50.6z"/>
		<path class="st0" d="M53.7,36.3h3.9v22.2h-3.9V36.3z"/>
		<path class="st0" d="M61.9,36.4c1-1,2.6-1,3.6,0c1,1,1,2.6,0,3.6c-1,1-2.6,1-3.6,0C61,39,61,37.3,61.9,36.4z M61.8,42.7h3.9v15.8
			h-3.9V42.7z"/>
		<path class="st0" d="M83.7,54.2c-1.2,3-3.6,4.5-7.2,4.5c-2.5,0-4.4-0.8-5.7-2.3s-2-3.5-2-5.8c0-2.3,0.7-4.3,2-5.8
			c1.3-1.5,3.2-2.3,5.7-2.3c3.6,0,5.9,1.5,7.2,4.5l-3.5,1.4c-0.8-1.7-2.1-2.6-3.7-2.6c-2.4,0-3.6,1.9-3.6,4.8c0,2.9,1.3,4.8,3.6,4.8
			c1.6,0,2.8-0.9,3.7-2.6L83.7,54.2z"/>
		<path class="st0" d="M107.4,58.5l-1.6-5.2h-6.9l-1.6,5.2h-4.4l7.4-21.9h4.1l7.4,21.9H107.4z M102.3,41.9l-2.3,7.6h4.6L102.3,41.9z
			"/>
		<path class="st0" d="M112.5,46v-3.3h2v-0.8c0-3.7,2.1-5.6,5.4-5.6c1.2,0,2.2,0.2,2.9,0.6l-0.8,3.1c-0.7-0.3-1.3-0.4-1.9-0.4
			c-1.2,0-1.8,0.7-1.8,2v1.1h3.3V46h-3.3v12.5h-3.9V46H112.5z"/>
		<path class="st0" d="M124,46v-3.3h2v-0.8c0-3.7,2.1-5.6,5.4-5.6c1.2,0,2.2,0.2,2.9,0.6l-0.8,3.1c-0.7-0.3-1.3-0.4-1.9-0.4
			c-1.2,0-1.8,0.7-1.8,2v1.1h3.3V46h-3.3v12.5H126V46H124z"/>
		<path class="st0" d="M135.9,46.8c0.5-2.6,2.8-4.4,6-4.4c4.4,0,6.6,2.2,6.6,6.6v9.4h-3.2l-0.4-2c-1.2,1.5-2.8,2.3-4.9,2.3
			c-2.8,0-4.8-1.8-4.8-4.8c0-3.1,2.7-5.2,6.7-5.2h2.6v-0.7c0-1.5-0.9-2.3-2.8-2.3c-1.4,0-2.3,0.6-2.7,1.8L135.9,46.8z M141,55.4
			c1,0,1.8-0.3,2.5-0.9c0.8-0.6,1.1-1.4,1.1-2.3v-0.3H142c-1.8,0-2.7,0.7-2.7,2C139.3,54.7,139.9,55.4,141,55.4z"/>
		<path class="st0" d="M152.4,36.4c1-1,2.6-1,3.6,0c1,1,1,2.6,0,3.6c-1,1-2.6,1-3.6,0C151.5,39,151.5,37.3,152.4,36.4z M152.3,42.7
			h3.9v15.8h-3.9V42.7z"/>
		<path class="st0" d="M164.3,58.5h-3.9V42.7h3.9v2.6c1.1-1.8,2.8-2.8,4.7-2.8c0.6,0,1.2,0.1,1.9,0.3l-0.7,3.6
			c-0.5-0.3-1-0.4-1.6-0.4c-2.5,0-4.2,2.2-4.2,6.9V58.5z"/>
		<path class="st0" d="M182.7,45l-2.3,2.1c-0.7-0.9-1.6-1.4-2.6-1.4c-0.8,0-1.4,0.5-1.4,1.3c0,0.7,0.5,1.2,1.5,1.5L179,49l1.3,0.5
			c0.2,0.1,0.6,0.3,1.1,0.6c0.5,0.3,0.9,0.5,1.1,0.8c0.5,0.5,1,1.5,1,2.6c0,1.5-0.5,2.7-1.6,3.7c-1,1-2.4,1.5-4,1.5
			c-1.5,0-2.8-0.4-3.9-1.3c-1.1-0.8-1.9-1.8-2.3-3l3.1-1.7c0.6,1.7,1.7,2.6,3.2,2.6c1.3,0,1.9-0.6,1.9-1.7c0-0.5-0.2-0.9-0.8-1.2
			c-0.3-0.2-0.6-0.3-0.9-0.4c-0.5-0.3-1.6-0.6-2.2-0.8c-2-0.8-3.2-2-3.2-4.3c0-1.3,0.5-2.3,1.4-3.3c0.9-0.9,2.2-1.3,3.6-1.3
			C179.9,42.4,181.7,43.5,182.7,45z"/>
	</g>
	<g>
		<g>
			<circle class="st0" cx="36.7" cy="76.4" r="1"/>
			<circle class="st0" cx="36.7" cy="79.9" r="1"/>
		</g>
		<g>
			<path class="st0" d="M43.8,78l1.8,2.9h-1.4l-1.8-2.8h-0.6v2.8h-1.2v-6.6H43c1.3,0,2,0.7,2,1.9C45,77.1,44.6,77.7,43.8,78z M43,77
				c0.5,0,0.8-0.2,0.8-0.7s-0.3-0.7-0.8-0.7h-1.2V77H43z"/>
			<path class="st0" d="M52.2,74.3v4.1c0,1.7-0.9,2.6-2.5,2.6s-2.5-0.9-2.5-2.6v-4.1h1.2v4.1c0,0.9,0.4,1.4,1.2,1.4s1.2-0.5,1.2-1.4
				v-4.1H52.2z"/>
			<path class="st0" d="M54.5,80.9v-6.6h2.1c1.6,0,3.1,1,3.1,3.3c0,2.3-1.5,3.3-3.1,3.3H54.5z M55.7,79.8h0.5c0.6,0,1-0.1,1.5-0.4
				c0.5-0.3,0.7-0.9,0.7-1.7c0-0.8-0.3-1.4-0.7-1.7c-0.4-0.3-0.9-0.4-1.5-0.4h-0.5V79.8z"/>
			<path class="st0" d="M66.2,78.3v2.6H65v-6.6h2.5c1.3,0,2.1,0.8,2.1,2s-0.7,2-2.1,2H66.2z M67.4,77.2c0.6,0,0.9-0.3,0.9-0.9
				c0-0.6-0.3-0.9-0.9-0.9h-1.2v1.7H67.4z"/>
			<path class="st0" d="M71.5,74.3h4.1v1.1h-2.8v1.4h2.3V78h-2.3v1.8h2.9v1.1h-4.2V74.3z"/>
			<path class="st0" d="M78,80.9v-6.6H80c1.6,0,3.1,1,3.1,3.3c0,2.3-1.5,3.3-3.1,3.3H78z M79.2,79.8h0.5c0.6,0,1-0.1,1.5-0.4
				c0.5-0.3,0.7-0.9,0.7-1.7c0-0.8-0.3-1.4-0.7-1.7c-0.4-0.3-0.9-0.4-1.5-0.4h-0.5V79.8z"/>
			<path class="st0" d="M85.2,74.3h4.1v1.1h-2.8v1.4h2.3V78h-2.3v1.8h2.9v1.1h-4.2V74.3z"/>
			<path class="st0" d="M94.8,78l1.8,2.9h-1.4l-1.8-2.8h-0.6v2.8h-1.2v-6.6H94c1.3,0,2,0.7,2,1.9C96,77.1,95.6,77.7,94.8,78z M94,77
				c0.5,0,0.8-0.2,0.8-0.7s-0.3-0.7-0.8-0.7h-1.2V77H94z"/>
			<path class="st0" d="M101.2,76.1c-0.2-0.5-0.5-0.7-0.9-0.7c-0.4,0-0.6,0.3-0.6,0.6c0,0.4,0.5,0.7,1,1c0.8,0.3,1.8,0.8,1.8,2
				c0,1.3-0.8,2-2.1,2c-0.6,0-1.1-0.2-1.5-0.5c-0.4-0.4-0.7-0.8-0.8-1.3l1-0.6c0.3,0.9,0.7,1.3,1.3,1.3c0.6,0,0.9-0.3,0.9-0.9
				c0-0.4-0.4-0.7-1-0.9c-0.8-0.3-1.8-0.8-1.8-2c0-0.5,0.2-0.9,0.5-1.3c0.3-0.3,0.8-0.5,1.3-0.5c0.9,0,1.5,0.4,1.9,1.2L101.2,76.1z"
				/>
			<path class="st0" d="M104.6,74.3h4.1v1.1h-2.8v1.4h2.3V78h-2.3v1.8h2.9v1.1h-4.2V74.3z"/>
			<path class="st0" d="M114.7,74.3h1.2v6.6h-1.3l-2.4-4.3v4.3H111v-6.6h1.3l2.4,4.3V74.3z"/>
			<path class="st0" d="M126.1,80.9l-0.1-0.7c-0.3,0.5-0.9,0.8-1.6,0.8c-0.8,0-1.6-0.3-2.2-0.9c-0.6-0.6-0.9-1.4-0.9-2.5
				c0-1.1,0.3-1.9,0.9-2.5c0.6-0.6,1.3-0.9,2.2-0.9c1.4,0,2.4,0.8,2.7,2.1l-1.1,0.3c-0.3-0.8-0.9-1.2-1.6-1.2
				c-1.1,0-1.9,0.8-1.9,2.2c0,1.5,0.8,2.2,1.9,2.2c0.9,0,1.4-0.6,1.5-1.2h-1.2v-1h2.4v3.3H126.1z"/>
			<path class="st0" d="M132.8,78l1.8,2.9h-1.4l-1.8-2.8h-0.6v2.8h-1.2v-6.6h2.4c1.3,0,2,0.7,2,1.9C134,77.1,133.5,77.7,132.8,78z
				 M132,77c0.5,0,0.8-0.2,0.8-0.7s-0.3-0.7-0.8-0.7h-1.2V77H132z"/>
			<path class="st0" d="M139.2,74.3c1.1,0,2.1,0.4,2.7,1.5c0.3,0.5,0.4,1.1,0.4,1.9c0,1.5-0.6,2.5-1.6,3c-0.5,0.2-1,0.3-1.5,0.3
				c-1.1,0-2.1-0.4-2.7-1.5c-0.3-0.5-0.4-1.1-0.4-1.9c0-1.5,0.6-2.5,1.6-3C138.1,74.4,138.6,74.3,139.2,74.3z M139.2,75.4
				c-0.5,0-1,0.2-1.3,0.6c-0.3,0.4-0.5,0.9-0.5,1.7c0,0.7,0.2,1.3,0.5,1.7c0.4,0.4,0.8,0.6,1.3,0.6c0.5,0,1-0.2,1.3-0.6
				c0.4-0.4,0.5-0.9,0.5-1.7c0-0.7-0.2-1.3-0.5-1.7C140.1,75.6,139.7,75.4,139.2,75.4z"/>
			<path class="st0" d="M149.2,74.3v4.1c0,1.7-0.9,2.6-2.5,2.6s-2.5-0.9-2.5-2.6v-4.1h1.2v4.1c0,0.9,0.4,1.4,1.2,1.4
				s1.2-0.5,1.2-1.4v-4.1H149.2z"/>
			<path class="st0" d="M152.8,78.3v2.6h-1.2v-6.6h2.5c1.3,0,2.1,0.8,2.1,2s-0.7,2-2.1,2H152.8z M154,77.2c0.6,0,0.9-0.3,0.9-0.9
				c0-0.6-0.3-0.9-0.9-0.9h-1.2v1.7H154z"/>
		</g>
	</g>
</g>
</svg>
