<?xml version="1.0" encoding="utf-8"?>
<!-- Generator: Adobe Illustrator 23.0.1, SVG Export Plug-In . SVG Version: 6.00 Build 0)  -->
<svg version="1.1" id="Layer_1" xmlns="http://www.w3.org/2000/svg" xmlns:xlink="http://www.w3.org/1999/xlink" x="0px" y="0px"
	 viewBox="0 0 162 41.24" style="enable-background:new 0 0 162 41.24;" xml:space="preserve">
<style type="text/css">
	.st0{fill:#68727E;}
	.st1{fill:#A1A5A7;}
	.st2{fill:#6C9CD3;}
	.st3{fill:#00558E;}
	.st4{fill:#B7D6F2;}
</style>
<polygon class="st0" points="0,30.41 0,41.03 1.95,41.03 1.95,36.84 5.99,36.84 5.99,35.08 1.95,35.08 1.95,32.2 6.55,32.2 
	6.55,30.41 "/>
<polygon class="st0" points="11.58,30.41 9.63,30.41 9.63,41.03 16.17,41.03 16.17,39.23 11.58,39.23 "/>
<polygon class="st0" points="19.11,41.03 25.65,41.03 25.65,39.23 21.06,39.23 21.06,36.51 25.21,36.51 25.21,34.77 21.06,34.77 
	21.06,32.2 25.65,32.2 25.65,30.4 19.11,30.4 "/>
<rect x="29.36" y="30.4" class="st0" width="1.95" height="10.62"/>
<path class="st0" d="M38.61,34.8c-1.33-0.59-1.76-0.97-1.76-1.6c0-0.58,0.4-1.21,1.53-1.21c0.74,0,1.56,0.39,2.05,0.73l0.09,0.06
	l0.63-1.73L41.09,31c-0.55-0.37-1.54-0.77-2.67-0.77c-2.31,0-3.52,1.51-3.52,3.01c0,1.37,0.78,2.31,2.53,3.04
	c1.63,0.69,1.92,1.13,1.92,1.8c0,0.62-0.39,1.28-1.5,1.28c-0.86,0-1.84-0.35-2.67-0.96l-0.09-0.06l-0.68,1.76l0.06,0.04
	c1.01,0.66,2.22,1.04,3.33,1.04c2.32,0,3.54-1.61,3.54-3.21C41.33,36.51,40.62,35.68,38.61,34.8"/>
<polygon class="st0" points="51.17,34.77 46.53,34.77 46.53,30.4 44.58,30.4 44.58,41.03 46.53,41.03 46.53,36.54 51.17,36.54 
	51.17,41.03 53.12,41.03 53.12,30.4 51.17,30.4 "/>
<polygon class="st0" points="67.08,30.28 66.67,30.24 62.19,37.11 57.6,30.24 57.21,30.28 56.76,41.03 58.69,41.03 58.8,34.94 
	61.99,39.76 62.3,39.76 65.47,34.96 65.61,41.03 67.53,41.03 67.09,30.36 "/>
<path class="st0" d="M74.68,30.26l-4.9,10.77h2.03l1.01-2.4h4.02l1.01,2.4h2.07l-4.88-10.77H74.68z M76.19,37.05h-2.71l1.35-3.19
	L76.19,37.05z"/>
<polygon class="st0" points="81.98,30.28 81.98,41.03 83.93,41.03 83.93,34.45 90.36,41.24 90.68,41.17 90.68,30.4 88.72,30.4 
	88.72,36.88 82.41,30.23 82.38,30.2 "/>
<polygon class="st1" points="100.97,34.77 96.33,34.77 96.33,30.4 94.38,30.4 94.38,41.03 96.33,41.03 96.33,36.54 100.97,36.54 
	100.97,41.03 102.92,41.03 102.92,30.4 100.97,30.4 "/>
<rect x="106.82" y="30.4" class="st1" width="1.95" height="10.62"/>
<polygon class="st1" points="114.62,30.41 112.66,30.41 112.66,41.03 119.21,41.03 119.21,39.23 114.62,39.23 "/>
<polygon class="st1" points="123.7,30.41 121.75,30.41 121.75,41.03 128.29,41.03 128.29,39.23 123.7,39.23 "/>
<path class="st1" d="M135.26,30.26h-0.37L130,41.03h2.03l1.01-2.4h4.02l1.01,2.4h2.07l-4.86-10.71L135.26,30.26z M136.41,37.05
	h-2.71l1.35-3.19L136.41,37.05z"/>
<path class="st1" d="M149.61,33.71c0-2.12-1.63-3.38-4.36-3.38c-0.93,0-1.78,0.05-2.76,0.17l-0.07,0.01v10.51h1.95v-3.77
	c0.3,0.01,0.64,0.02,0.96,0.02c0.18,0,0.34,0,0.51-0.01l2.28,3.76h2.27l-2.77-4.25C148.89,36.18,149.61,35.07,149.61,33.71
	 M147.56,33.8c0,1.19-0.8,1.84-2.25,1.84c-0.36,0-0.67-0.01-0.94-0.05v-3.42c0.35-0.06,0.76-0.07,1.11-0.07
	C146.76,32.1,147.56,32.75,147.56,33.8"/>
<path class="st1" d="M155.74,30.33c-0.99,0-1.84,0.05-2.92,0.17l-0.08,0.01v10.42l0.08,0.01c1.09,0.1,1.9,0.17,3.02,0.17
	c4.54,0,6.16-2.84,6.16-5.49C162,32.41,159.54,30.33,155.74,30.33 M159.92,35.62c0,2.37-1.39,3.74-3.81,3.74
	c-0.63,0-1-0.01-1.41-0.07v-7.14c0.35-0.05,0.77-0.07,1.25-0.07C158.44,32.07,159.92,33.4,159.92,35.62"/>
<path class="st2" d="M69.15,4.59L69.15,4.59v15l0,0c0,1.35,2.61,1.97,2.61,1.97V2.62C71.76,2.62,69.15,3.24,69.15,4.59"/>
<path class="st3" d="M90.71,4.59L90.71,4.59v15l0,0c0,1.35-2.61,1.97-2.61,1.97V2.62C88.1,2.62,90.71,3.24,90.71,4.59"/>
<path class="st2" d="M77.13,8.9L77.13,8.9h5.77l0,0c1.35,0,1.97-2.61,1.97-2.61h-9.71C75.16,6.29,75.78,8.9,77.13,8.9"/>
<path class="st3" d="M77.13,15.19L77.13,15.19h5.77l0,0c1.35,0,1.97-2.61,1.97-2.61h-9.71C75.16,12.58,75.78,15.19,77.13,15.19"/>
<path class="st4" d="M77.13,2.61L77.13,2.61h5.77l0,0c1.35,0,1.97-2.61,1.97-2.61h-9.71C75.16,0,75.78,2.61,77.13,2.61"/>
</svg>
