<?xml version="1.0" encoding="UTF-8"?>
<svg id="logo" xmlns="http://www.w3.org/2000/svg" viewBox="0 0 1076.88 528.52">
  <defs>
    <style>
      .cls-1 {
        fill: none;
      }

      .cls-2 {
        fill: #f54963;
      }
    </style>
  </defs>
  <g id="Capa_1-2" data-name="Capa 1-2">
    <g>
      <polygon class="cls-2" points="240.67 176.17 286.57 176.17 286.57 312.64 361.01 312.64 361.01 352.35 240.67 352.35 240.67 176.17"/>
      <polygon class="cls-2" points="387.08 176.17 432.97 176.17 432.97 312.64 507.41 312.64 507.41 352.35 387.08 352.35 387.08 176.17"/>
      <polygon class="cls-1" points="499.66 0 545.56 0 545.56 136.47 620 136.47 620 176.17 499.66 176.17 499.66 0"/>
      <polygon class="cls-1" points="499.66 352.35 545.56 352.35 545.56 488.81 620 488.81 620 528.52 499.66 528.52 499.66 352.35"/>
      <polygon class="cls-1" points="166.23 312.64 166.23 176.17 120.34 176.17 120.34 312.64 45.9 312.64 45.9 176.17 0 176.17 0 352.35 120.34 352.35 240.67 352.35 240.67 312.64 166.23 312.64"/>
      <polygon class="cls-1" points="1002.27 312.64 1002.27 176.17 956.38 176.17 956.38 312.64 881.94 312.64 881.94 176.17 836.04 176.17 836.04 352.35 956.38 352.35 1076.71 352.35 1076.71 312.64 1002.27 312.64"/>
      <polygon class="cls-2" points="668.89 177.4 605.43 296.44 605.43 352.35 559.52 352.35 559.52 297.69 494.81 177.4 540.71 177.4 582.35 252.52 622.98 177.4 668.89 177.4"/>
      <path class="cls-2" d="m793.33,219.18c-7.83-4.25-15.58-6.37-23.25-6.37-8.84,0-16.87,2.21-24.13,6.62-7.24,4.41-12.96,10.5-17.12,18.25-4.16,7.75-6.25,16.38-6.25,25.87s2.07,18.13,6.25,25.87c4.16,7.75,9.88,13.83,17.12,18.25,7.26,4.41,15.28,6.62,24.13,6.62,7.17,0,14.66-1.84,22.5-5.49s14.83-8.66,21-15l26.75,28.75c-9.49,10-20.79,17.97-33.87,23.87-13.08,5.91-26.04,8.87-38.88,8.87-17.34,0-33-4-46.99-12-14-8-25-18.91-33-32.75-8-13.83-12-29.33-12-46.51s4.09-32.33,12.25-46c8.16-13.67,19.37-24.41,33.62-32.24,14.25-7.83,30.2-11.74,47.87-11.74,13,0,25.83,2.71,38.49,8.13,12.66,5.42,23.42,12.8,32.26,22.13l-26.5,32.01c-5.67-7.17-12.41-12.87-20.25-17.12"/>
    </g>
  </g>
</svg>