<?xml version="1.0" encoding="utf-8"?>
<!-- Generator: Adobe Illustrator 23.0.1, SVG Export Plug-In . SVG Version: 6.00 Build 0)  -->
<svg version="1.1" id="Layer_1" xmlns="http://www.w3.org/2000/svg" xmlns:xlink="http://www.w3.org/1999/xlink" x="0px" y="0px"
	 viewBox="0 0 229.15 45.63" style="enable-background:new 0 0 229.15 45.63;" xml:space="preserve">
<style type="text/css">
	.st0{fill:#003E69;}
</style>
<g>
	<polygon class="st0" points="46.34,16.45 46.34,16.44 11.53,16.44 11.53,11.49 46.34,11.49 46.34,8.28 5.05,8.28 5.05,3.23 
		46.34,3.23 46.34,0.02 0,0.02 0,45.25 18,45.25 18,19.66 22.87,19.66 22.87,45.25 28.13,45.25 28.13,19.66 32.93,19.66 
		32.93,45.25 38.2,45.25 38.2,19.66 43.12,19.66 43.12,45.25 46.34,45.25 46.34,16.45 	"/>
	<g>
		<path class="st0" d="M73.92,45.65c-3.34,0-5.85-2.6-5.85-6.04c0-3.42,2.58-6.1,5.89-6.1c2.2,0,3.47,0.89,4.52,1.85l0.39,0.36
			l-1.29,1.32l-0.36-0.35c-0.74-0.71-1.7-1.44-3.27-1.44c-2.29,0-4.02,1.85-4.02,4.3c0,2.45,1.77,4.37,4.04,4.37
			c1.28,0,2.25-0.44,3.35-1.53l0.35-0.35l1.26,1.24l-0.37,0.36C77.54,44.63,76.2,45.65,73.92,45.65z"/>
		<path class="st0" d="M89.86,45.65c-3.37,0-5.9-2.6-5.9-6.04c0-3.42,2.61-6.1,5.93-6.1c3.31,0,5.85,2.55,5.9,5.93v0.23
			C95.74,43.02,93.14,45.65,89.86,45.65z M89.86,35.25c-2.31,0-4.06,1.85-4.06,4.3c0,2.45,1.8,4.37,4.09,4.37
			c2.31,0,4.06-1.85,4.06-4.3C93.95,37.16,92.15,35.25,89.86,35.25z"/>
	</g>
	<polygon class="st0" points="110.95,45.46 104.13,36.86 104.13,45.46 102.35,45.46 102.35,33.69 103.86,33.69 110.52,42.1 
		110.52,33.69 112.31,33.69 112.31,45.46 	"/>
	<g>
		<path class="st0" d="M123.23,45.62c-1.8,0-3.24-0.57-4.67-1.85l-0.38-0.33l1.2-1.37l0.38,0.35c1.14,1.05,2.13,1.46,3.51,1.46
			c1.3,0,2.21-0.67,2.21-1.63c0-0.73-0.2-1.33-2.63-1.82c-2.83-0.57-4.04-1.63-4.04-3.53c0-1.92,1.71-3.37,3.97-3.37
			c1.58,0,2.74,0.41,4,1.42l0.4,0.32l-1.16,1.43l-0.4-0.34c-0.87-0.75-1.76-1.09-2.88-1.09c-1.23,0-2.12,0.64-2.12,1.52
			c0,0.62,0,1.32,2.73,1.88c2.72,0.55,3.94,1.62,3.94,3.46C127.3,44.19,125.63,45.62,123.23,45.62z"/>
		<path class="st0" d="M138.52,45.63c-3.03,0-4.92-1.97-4.92-5.15v-6.79h1.82v6.72c0,2.25,1.11,3.49,3.13,3.49
			c2.01,0,3.07-1.18,3.07-3.41v-6.79h1.81v6.7C143.44,43.63,141.55,45.63,138.52,45.63z"/>
	</g>
	<polygon class="st0" points="150.45,45.46 150.45,33.69 152.27,33.69 152.27,43.71 158.58,43.71 158.58,45.46 	"/>
	<polygon class="st0" points="165.48,45.46 165.48,35.45 161.73,35.45 161.73,33.69 171.05,33.69 171.05,35.45 167.3,35.45 
		167.3,45.46 	"/>
	<rect x="177.16" y="33.69" class="st0" width="1.81" height="11.77"/>
	<polygon class="st0" points="194.72,45.46 187.9,36.86 187.9,45.46 186.12,45.46 186.12,33.69 187.62,33.69 194.29,42.1 
		194.29,33.69 196.08,33.69 196.08,45.46 	"/>
	<g>
		<path class="st0" d="M208.55,45.65c-3.48,0-5.92-2.48-5.92-6.04c0-3,2.18-6.1,5.82-6.1c1.72,0,2.95,0.44,4.26,1.53l0.4,0.33
			l-1.2,1.37l-0.39-0.33c-0.69-0.61-1.55-1.17-3.12-1.17c-2.21,0-3.93,1.89-3.93,4.3c0,2.62,1.65,4.38,4.1,4.38
			c1.44,0,2.51-0.67,2.92-0.97v-2.34h-3.6v-1.75h5.38v4.88l-0.08,0.07C211.88,45,210.23,45.65,208.55,45.65z"/>
	</g>
	<polygon class="st0" points="221.97,4.19 221.97,0.68 220.66,0.68 220.66,0 223.98,0 223.98,0.68 222.68,0.68 222.68,4.19 	"/>
	<polygon class="st0" points="228.44,4.19 228.44,1.32 227.21,4.19 226.77,4.19 225.53,1.31 225.53,4.19 224.83,4.19 224.83,0 
		225.72,0 226.99,2.93 228.27,0 229.15,0 229.15,4.19 	"/>
	<polygon class="st0" points="146.11,26.52 146.11,5.51 133.54,5.51 133.54,0.01 164.03,0.01 164.03,5.51 151.6,5.51 151.6,26.52 	
		"/>
	<rect x="207.99" y="0.03" class="st0" width="5.49" height="26.49"/>
	<polygon class="st0" points="68.13,26.52 68.13,0.01 95.07,0.01 95.07,5.51 73.64,5.51 73.64,11.62 85.48,11.62 85.48,17.11 
		73.64,17.11 73.64,26.52 	"/>
</g>
</svg>
