<?xml version="1.0" encoding="utf-8"?>
<!-- Generator: Adobe Illustrator 23.0.1, SVG Export Plug-In . SVG Version: 6.00 Build 0)  -->
<svg version="1.1" id="Layer_1" xmlns="http://www.w3.org/2000/svg" xmlns:xlink="http://www.w3.org/1999/xlink" x="0px" y="0px"
	 viewBox="0 0 470.99 153.23" style="enable-background:new 0 0 470.99 153.23;" xml:space="preserve">
<style type="text/css">
	.Arched_x0020_Green{fill:url(#SVGID_1_);stroke:#FFFFFF;stroke-width:0.25;stroke-miterlimit:1;}
	.st0{fill:#1B184E;}
	.st1{fill:#9A7017;}
	.st2{fill:none;stroke:#8A5D3B;stroke-width:1.8582;}
</style>
<linearGradient id="SVGID_1_" gradientUnits="userSpaceOnUse" x1="0" y1="841.8906" x2="0.7071" y2="841.1835">
	<stop  offset="0" style="stop-color:#1EAB4B"/>
	<stop  offset="0.9831" style="stop-color:#19361A"/>
</linearGradient>
<g>
	<g>
		<g>
			<path class="st0" d="M422.35,38.33l11.96-24.94l-27.07,5.69L387.22,0l-2.95,27.49l-24.34,13.16l25.25,11.31l4.97,27.21
				l18.56-20.52l27.41,3.67L422.35,38.33z M404.84,49.41l-9.31,10.29l-2.49-13.65l-12.66-5.67l12.21-6.6L394.07,20l10.04,9.57
				l13.58-2.85l-6,12.51l6.9,12.03L404.84,49.41z"/>
		</g>
	</g>
</g>
<g>
	<path class="st1" d="M161.62,148.62c-0.76,0.4-2.01,0.73-3.39,0.73c-2.71,0-3.89-1.66-3.89-3.71c0-2.79,2.29-5.94,5.59-5.94
		c1.95,0,3.01,1.05,3.01,2.37c0,2.43-3.03,3.08-6.81,3.02c-0.08,0.4-0.02,1.26,0.21,1.76c0.4,0.82,1.23,1.24,2.29,1.24
		c1.21,0,2.12-0.34,2.75-0.65L161.62,148.62z M159.67,140.94c-1.67,0-2.92,1.47-3.34,2.92c2.75,0.02,4.91-0.31,4.91-1.74
		C161.24,141.36,160.6,140.94,159.67,140.94z"/>
	<path class="st1" d="M174.76,139.91l-1.38,6.55c-0.21,1.03-0.36,1.93-0.47,2.69h-1.59l0.28-1.74h-0.04
		c-0.91,1.2-2.26,1.95-3.62,1.95c-1.31,0-2.69-0.57-2.69-2.67c0-0.44,0.06-0.94,0.19-1.55l1.1-5.23h1.76l-1.08,5.16
		c-0.13,0.52-0.19,0.96-0.19,1.36c0,0.96,0.44,1.6,1.65,1.6c1.27,0,2.9-1.34,3.32-3.38l0.99-4.74H174.76z"/>
	<path class="st1" d="M176.85,149.16l1.25-5.96c0.25-1.2,0.42-2.43,0.53-3.29h1.55c-0.09,0.65-0.17,1.3-0.28,2.01h0.06
		c0.66-1.26,1.76-2.22,3.13-2.22c0.15,0,0.36,0.02,0.49,0.04l-0.34,1.57c-0.11-0.02-0.27-0.04-0.47-0.04
		c-1.52,0-2.88,1.66-3.32,3.82l-0.85,4.07H176.85z"/>
	<path class="st1" d="M194.23,143.56c0,2.85-2.24,5.81-5.67,5.81c-2.56,0-4-1.72-4-3.8c0-3.04,2.35-5.86,5.67-5.86
		C193,139.7,194.23,141.59,194.23,143.56z M186.38,145.51c0,1.51,0.91,2.6,2.41,2.6c2.07,0,3.64-2.41,3.64-4.57
		c0-1.07-0.55-2.58-2.39-2.58C187.83,140.96,186.35,143.39,186.38,145.51z"/>
	<path class="st1" d="M195.49,152.94l2.05-9.74c0.21-1.11,0.42-2.35,0.57-3.29h1.61l-0.3,1.74h0.04c0.93-1.2,2.29-1.95,3.68-1.95
		c2.22,0,3.15,1.64,3.15,3.34c0,3.25-2.58,6.32-5.99,6.32c-1.1,0-1.82-0.21-2.22-0.42h-0.04l-0.83,3.99H195.49z M198.37,147.61
		c0.44,0.33,1.12,0.52,1.95,0.52c2.26,0,4.17-2.54,4.17-4.97c0-0.97-0.49-2.14-1.97-2.14c-1.38,0-3.11,1.43-3.64,4.01L198.37,147.61
		z"/>
	<path class="st1" d="M215.91,148.62c-0.76,0.4-2.01,0.73-3.39,0.73c-2.71,0-3.89-1.66-3.89-3.71c0-2.79,2.29-5.94,5.59-5.94
		c1.95,0,3.01,1.05,3.01,2.37c0,2.43-3.03,3.08-6.82,3.02c-0.08,0.4-0.02,1.26,0.21,1.76c0.4,0.82,1.23,1.24,2.29,1.24
		c1.21,0,2.12-0.34,2.75-0.65L215.91,148.62z M213.97,140.94c-1.67,0-2.92,1.47-3.34,2.92c2.75,0.02,4.91-0.31,4.91-1.74
		C215.53,141.36,214.9,140.94,213.97,140.94z"/>
	<path class="st1" d="M225.86,149.16c0-0.55,0.11-1.43,0.23-2.39h-0.04c-1.12,1.91-2.52,2.6-3.98,2.6c-1.8,0-2.94-1.3-2.94-3.06
		c0-3.21,2.62-6.61,7.09-6.61c0.97,0,2.05,0.15,2.75,0.36l-1.04,4.81c-0.34,1.6-0.49,3.25-0.44,4.28H225.86z M227,141.1
		c-0.25-0.06-0.64-0.13-1.23-0.13c-2.65,0-4.8,2.5-4.83,5.06c0,1.03,0.4,2.04,1.76,2.04c1.46,0,3.2-1.72,3.7-4.18L227,141.1z"/>
	<path class="st1" d="M231.06,149.16l1.38-6.55c0.23-1.03,0.36-1.93,0.49-2.69h1.57l-0.25,1.81h0.04c0.91-1.3,2.29-2.02,3.79-2.02
		c1.23,0,2.6,0.63,2.6,2.58c0,0.4-0.08,0.99-0.19,1.49l-1.14,5.39h-1.76l1.12-5.33c0.09-0.36,0.15-0.8,0.15-1.18
		c0-0.94-0.4-1.62-1.61-1.62c-1.25,0-3.03,1.36-3.49,3.65l-0.93,4.49H231.06z"/>
	<path class="st1" d="M254.91,149.16c0-0.55,0.11-1.43,0.23-2.39h-0.04c-1.12,1.91-2.52,2.6-3.98,2.6c-1.8,0-2.94-1.3-2.94-3.06
		c0-3.21,2.62-6.61,7.09-6.61c0.97,0,2.05,0.15,2.75,0.36l-1.04,4.81c-0.34,1.6-0.49,3.25-0.44,4.28H254.91z M256.05,141.1
		c-0.25-0.06-0.63-0.13-1.23-0.13c-2.65,0-4.8,2.5-4.83,5.06c0,1.03,0.4,2.04,1.76,2.04c1.46,0,3.2-1.72,3.7-4.18L256.05,141.1z"/>
	<path class="st1" d="M273.53,136.89c-0.28-0.11-0.63-0.17-1.04-0.17c-1.4,0-2.07,1.22-2.37,2.75l-0.08,0.44h2.26l-0.25,1.24h-2.29
		l-1.67,8h-1.76l1.69-8h-4.15l-1.67,8h-1.76l1.67-8h-1.35l0.25-1.24h1.38l0.08-0.42c0.23-1.09,0.7-2.23,1.54-3.02
		c0.59-0.53,1.4-0.88,2.48-0.88c0.53,0,1,0.11,1.31,0.27l-0.53,1.24c-0.21-0.11-0.53-0.19-0.85-0.19c-1.4,0-1.95,1.28-2.22,2.62
		l-0.08,0.38h4.15l0.11-0.48c0.25-1.3,0.76-2.48,1.67-3.23c0.66-0.54,1.54-0.82,2.43-0.82c0.7,0,1.16,0.12,1.42,0.25L273.53,136.89z
		"/>
	<path class="st1" d="M279.67,149.16c0-0.55,0.11-1.43,0.23-2.39h-0.04c-1.12,1.91-2.52,2.6-3.98,2.6c-1.8,0-2.94-1.3-2.94-3.06
		c0-3.21,2.62-6.61,7.09-6.61c0.97,0,2.05,0.15,2.75,0.36l-1.04,4.81c-0.34,1.6-0.49,3.25-0.44,4.28H279.67z M280.81,141.1
		c-0.25-0.06-0.63-0.13-1.23-0.13c-2.65,0-4.8,2.5-4.83,5.06c0,1.03,0.4,2.04,1.76,2.04c1.46,0,3.2-1.72,3.7-4.18L280.81,141.1z"/>
	<path class="st1" d="M284.87,149.16l1.97-9.25h1.76l-1.97,9.25H284.87z M287.16,137.33c0-0.61,0.53-1.07,1.16-1.07
		c0.63,0,1.04,0.42,1.04,0.99c-0.02,0.63-0.51,1.07-1.18,1.07C287.56,138.33,287.16,137.91,287.16,137.33z"/>
	<path class="st1" d="M290.67,149.16l1.25-5.96c0.25-1.2,0.42-2.43,0.53-3.29h1.54c-0.08,0.65-0.17,1.3-0.27,2.01h0.06
		c0.66-1.26,1.76-2.22,3.13-2.22c0.15,0,0.36,0.02,0.49,0.04l-0.34,1.57c-0.11-0.02-0.28-0.04-0.47-0.04
		c-1.52,0-2.88,1.66-3.32,3.82l-0.85,4.07H290.67z"/>
	<path class="st1" d="M298.43,147.55c0.49,0.27,1.38,0.57,2.2,0.57c1.19,0,1.95-0.69,1.95-1.51c0-0.73-0.36-1.16-1.42-1.7
		c-1.18-0.59-1.84-1.41-1.84-2.35c0-1.62,1.54-2.87,3.7-2.87c0.93,0,1.76,0.23,2.14,0.46l-0.49,1.2c-0.36-0.19-1.02-0.42-1.78-0.42
		c-1.06,0-1.82,0.59-1.82,1.39c0,0.67,0.49,1.09,1.4,1.55c1.14,0.59,1.93,1.39,1.93,2.43c0,1.95-1.76,3.04-3.92,3.04
		c-1.1,0-2.07-0.31-2.54-0.63L298.43,147.55z"/>
	<path class="st1" d="M319.04,148.79c-0.53,0.23-1.59,0.55-2.96,0.55c-2.64,0-3.94-1.61-3.94-3.57c0-3.15,2.58-6.06,6.26-6.06
		c0.95,0,1.82,0.25,2.14,0.4l-0.51,1.26c-0.4-0.17-0.97-0.34-1.74-0.34c-2.67,0-4.34,2.37-4.34,4.55c0,1.49,0.87,2.46,2.54,2.46
		c1.04,0,1.84-0.29,2.37-0.52L319.04,148.79z"/>
	<path class="st1" d="M331.53,143.56c0,2.85-2.24,5.81-5.67,5.81c-2.56,0-4-1.72-4-3.8c0-3.04,2.35-5.86,5.67-5.86
		C330.3,139.7,331.53,141.59,331.53,143.56z M323.68,145.51c0,1.51,0.91,2.6,2.41,2.6c2.07,0,3.64-2.41,3.64-4.57
		c0-1.07-0.55-2.58-2.39-2.58C325.14,140.96,323.66,143.39,323.68,145.51z"/>
	<path class="st1" d="M333.71,149.16l1.38-6.55c0.23-1.03,0.36-1.93,0.49-2.69h1.57l-0.25,1.81h0.04c0.91-1.3,2.29-2.02,3.79-2.02
		c1.23,0,2.6,0.63,2.6,2.58c0,0.4-0.08,0.99-0.19,1.49l-1.14,5.39h-1.76l1.12-5.33c0.08-0.36,0.15-0.8,0.15-1.18
		c0-0.94-0.4-1.62-1.61-1.62c-1.25,0-3.03,1.36-3.49,3.65l-0.93,4.49H333.71z"/>
	<path class="st1" d="M346.04,147.55c0.49,0.27,1.38,0.57,2.2,0.57c1.19,0,1.95-0.69,1.95-1.51c0-0.73-0.36-1.16-1.42-1.7
		c-1.18-0.59-1.84-1.41-1.84-2.35c0-1.62,1.54-2.87,3.7-2.87c0.93,0,1.76,0.23,2.14,0.46l-0.49,1.2c-0.36-0.19-1.02-0.42-1.78-0.42
		c-1.06,0-1.82,0.59-1.82,1.39c0,0.67,0.49,1.09,1.4,1.55c1.14,0.59,1.93,1.39,1.93,2.43c0,1.95-1.76,3.04-3.92,3.04
		c-1.1,0-2.07-0.31-2.54-0.63L346.04,147.55z"/>
	<path class="st1" d="M364.79,139.91l-1.38,6.55c-0.21,1.03-0.36,1.93-0.47,2.69h-1.59l0.28-1.74h-0.04
		c-0.91,1.2-2.26,1.95-3.62,1.95c-1.31,0-2.69-0.57-2.69-2.67c0-0.44,0.06-0.94,0.19-1.55l1.1-5.23h1.76l-1.08,5.16
		c-0.13,0.52-0.19,0.96-0.19,1.36c0,0.96,0.44,1.6,1.65,1.6c1.27,0,2.9-1.34,3.32-3.38l0.99-4.74H364.79z"/>
	<path class="st1" d="M366.9,149.16l2.86-13.56h1.76l-2.88,13.56H366.9z"/>
	<path class="st1" d="M377.27,137.43l-0.53,2.48h2.46l-0.28,1.24h-2.45l-0.95,4.49c-0.11,0.52-0.19,0.99-0.19,1.49
		c0,0.55,0.3,0.88,0.97,0.88c0.3,0,0.59-0.02,0.83-0.06l-0.08,1.24c-0.32,0.11-0.85,0.17-1.35,0.17c-1.57,0-2.16-0.86-2.16-1.8
		c0-0.53,0.06-1.07,0.21-1.74l1.02-4.68h-1.48l0.27-1.24h1.46l0.44-2.08L377.27,137.43z"/>
	<path class="st1" d="M380.26,149.16l1.97-9.25h1.76l-1.97,9.25H380.26z M382.54,137.33c0-0.61,0.53-1.07,1.16-1.07
		s1.04,0.42,1.04,0.99c-0.02,0.63-0.51,1.07-1.18,1.07C382.94,138.33,382.54,137.91,382.54,137.33z"/>
	<path class="st1" d="M386.05,149.16l1.38-6.55c0.23-1.03,0.36-1.93,0.49-2.69h1.57l-0.25,1.81h0.04c0.91-1.3,2.29-2.02,3.79-2.02
		c1.23,0,2.6,0.63,2.6,2.58c0,0.4-0.08,0.99-0.19,1.49l-1.14,5.39h-1.76l1.12-5.33c0.08-0.36,0.15-0.8,0.15-1.18
		c0-0.94-0.4-1.62-1.61-1.62c-1.25,0-3.03,1.36-3.49,3.65l-0.93,4.49H386.05z"/>
	<path class="st1" d="M398.41,151.26c0.61,0.34,1.63,0.61,2.71,0.61c1.71,0,3.07-0.8,3.68-3.3l0.34-1.38h-0.06
		c-0.89,1.32-2.14,1.97-3.56,1.97c-2.05,0-3.11-1.57-3.11-3.21c-0.02-3.13,2.54-6.25,6.5-6.25c1.19,0,2.48,0.31,3.28,0.65
		l-1.57,7.64c-0.42,1.95-1,3.3-2.07,4.13c-1.02,0.8-2.39,1.03-3.58,1.03c-1.25,0-2.41-0.27-3.07-0.65L398.41,151.26z M406.26,141.29
		c-0.32-0.13-0.95-0.31-1.69-0.31c-2.56,0-4.32,2.41-4.34,4.7c0,1.01,0.4,2.22,1.97,2.22c1.5,0,3.03-1.72,3.41-3.53L406.26,141.29z"
		/>
</g>
<path class="st0" d="M32.94,127.43c-5.22,2.53-11.33,3.09-15.28,3.09C6.26,130.52,0,124.5,0,113.65c0-11.88,8.55-23.83,23.29-23.83
	c8.07,0,14.41,4.43,14.41,12.43c0,9.74-8.87,13.7-24.95,13.22c0.16,0.87,0.63,1.9,1.42,2.61c1.51,1.27,3.88,1.99,6.97,1.99
	c3.95,0,7.68-0.79,11.08-2.38L32.94,127.43z M25.1,102.09c0-1.35-1.26-2.53-3.49-2.53c-4.83,0-7.2,3.64-7.6,6.17
	c8.23,0.09,11.08-1.1,11.08-3.55V102.09z"/>
<path class="st0" d="M83.95,90.69l-4.83,25.66c-1.03,5.22-1.66,9.66-2.3,13.3H64.95l0.64-5.94h-0.16c-4.2,5.07-8.79,6.82-13.3,6.82
	c-6.73,0-9.82-4.04-9.82-10.77c0-2.22,0.24-4.68,0.8-7.45l4.03-21.61h13.54l-3.87,20.5c-0.33,1.58-0.56,3.57-0.56,4.92
	c0,1.81,0.79,3.48,2.93,3.48c3.49,0,6.57-4.27,8-11.64l3.24-17.25H83.95z"/>
<path class="st0" d="M81.55,148.9l8.36-42.61c0.79-4.59,1.82-11.97,2.3-16h12.03l-0.56,5.39h0.16c3.01-3.88,7.36-5.86,11.8-5.86
	c8.47,0,12.83,6.72,12.83,15.04c0,13.46-8.71,25.66-22.49,25.66c-2.69,0-5.46-0.72-6.73-1.59H99.1l-4.09,19.96H81.55z
	 M101.15,118.65c1.03,1.02,2.38,1.74,4.28,1.74c5.07,0,8.87-7.91,8.87-14.49c0-2.61-1.19-5.15-4.04-5.15
	c-3.88,0-6.81,4.28-7.92,10.54L101.15,118.65z"/>
<path class="st0" d="M127.34,148.9l8.35-42.61c0.79-4.59,1.83-11.97,2.3-16h12.04l-0.55,5.39h0.16c3-3.88,7.35-5.86,11.79-5.86
	c8.48,0,12.83,6.72,12.83,15.04c0,13.46-8.71,25.66-22.48,25.66c-2.69,0-5.47-0.72-6.73-1.59h-0.16l-4.07,19.96H127.34z
	 M146.94,118.65c1.04,1.02,2.38,1.74,4.28,1.74c5.07,0,8.87-7.91,8.87-14.49c0-2.61-1.19-5.15-4.04-5.15
	c-3.88,0-6.81,4.28-7.92,10.54L146.94,118.65z"/>
<path class="st0" d="M220.12,105.81c0,15.13-10.3,24.71-23.92,24.71c-9.98,0-17.1-6.1-17.1-16.16c0-13.7,9.66-24.54,23.99-24.54
	C213.55,89.82,220.12,96.63,220.12,105.81z M193.11,114.13c0,3.8,1.75,6.18,4.99,6.18c5.54,0,8.07-8.79,8.07-14.33
	c0-3.25-1.34-5.94-4.91-5.94C195.49,100.03,193.11,109.37,193.11,114.13z"/>
<path class="st0" d="M222.98,129.65l4.28-22.41c1.11-6.18,1.59-13.3,1.99-16.54h11.64c-0.16,2.61-0.32,5.14-0.56,7.76h0.24
	c2.85-5.07,7.21-8.63,12.59-8.63c0.8,0,1.51,0,2.3,0.07l-2.69,13.06c-0.47,0-1.11,0-1.74,0c-7.99,0-10.69,6.26-12.04,13.39
	l-2.45,13.3H222.98z"/>
<path class="st0" d="M280.1,79.6l-2.06,11.09h7.92l-1.98,10.2h-7.92l-2.22,10.78c-0.24,1.26-0.55,3.25-0.55,4.35
	c0,1.74,0.71,3.09,3.17,3.09c0.95,0,2.06,0,3.17-0.16l-1.74,10.61c-1.67,0.63-4.83,0.95-7.45,0.95c-7.37,0-11.01-3.57-11.01-8.79
	c0-2.06,0.24-4.12,0.79-7.21l2.69-13.62h-4.75l1.98-10.2h4.75l1.34-7.37L280.1,79.6z"/>
<path class="st0" d="M329.04,90.69l-4.83,25.66c-1.02,5.22-1.66,9.66-2.29,13.3h-11.88l0.64-5.94h-0.17
	c-4.18,5.07-8.78,6.82-13.29,6.82c-6.73,0-9.82-4.04-9.82-10.77c0-2.22,0.24-4.68,0.79-7.45l4.04-21.61h13.54l-3.88,20.5
	c-0.31,1.58-0.55,3.57-0.55,4.92c0,1.81,0.79,3.48,2.93,3.48c3.48,0,6.57-4.27,8-11.64l3.25-17.25H329.04z"/>
<path class="st0" d="M330.48,129.65l4.83-25.73c1.03-5.15,1.66-9.67,2.22-13.22h11.88l-0.56,5.94h0.16
	c3.72-4.91,8.32-6.81,13.23-6.81c7.13,0,10.06,4.43,10.06,10.61c0,1.74-0.32,4.83-0.64,6.64l-4.27,22.57h-13.55l3.96-21.15
	c0.25-1.34,0.4-2.78,0.4-4.12c0-2.21-0.64-3.8-2.93-3.8c-3.25,0-6.57,4.28-8.16,12.43l-3.08,16.63H330.48z"/>
<path class="st0" d="M376.11,129.65l7.36-38.96h13.54l-7.36,38.96H376.11z"/>
<path class="st0" d="M422.35,79.6l-2.06,11.09h7.92l-1.98,10.2h-7.92l-2.22,10.78c-0.23,1.26-0.55,3.25-0.55,4.35
	c0,1.74,0.71,3.09,3.17,3.09c0.95,0,2.06,0,3.17-0.16l-1.74,10.61c-1.66,0.63-4.83,0.95-7.45,0.95c-7.36,0-11.01-3.57-11.01-8.79
	c0-2.06,0.24-4.12,0.79-7.21l2.69-13.62h-4.75l1.98-10.2h4.75l1.35-7.37L422.35,79.6z"/>
<path class="st0" d="M444.85,90.69l1.74,15.28c0.48,3.8,0.87,6.57,1.11,8.86h0.16c0.79-2.36,1.5-4.75,3.08-8.94l5.87-15.2h14.17
	l-13.54,27.23c-5.54,11.17-10.51,18.39-15.68,23.05c-6.18,5.57-13.42,7.67-20.22,7.93l1.82-11.64c3.71-0.45,7.07-2.2,9.13-3.55
	c2.61-1.67,4.36-4.22,5.55-6.28c0.39-0.63,0.39-1.03,0.24-1.98l-7.68-34.76H444.85z"/>
<path class="st2" d="M424.98,118.96"/>
</svg>
