<?xml version="1.0" encoding="utf-8"?>
<!-- Generator: Adobe Illustrator 23.0.1, SVG Export Plug-In . SVG Version: 6.00 Build 0)  -->
<svg version="1.1" id="Layer_1" xmlns="http://www.w3.org/2000/svg" xmlns:xlink="http://www.w3.org/1999/xlink" x="0px" y="0px"
	 viewBox="0 0 305.17 75" style="enable-background:new 0 0 305.17 75;" xml:space="preserve">
<style type="text/css">
	.st0{fill:#3E2E63;}
</style>
<g>
	<g>
		<path class="st0" d="M0,0h16.63l0.15,36.87c1.77-2.3,6.56-7.45,15.87-7.49c5.85-0.02,9.73,1.95,11.73,4.14
			c2.42,2.71,2.54,6.99,2.55,9.81l0.12,28.79H53l0.01,2.2H31.05l-0.01-2.2h5.75l-0.12-29.37c-0.02-4.39,0.06-10.25-7.05-10.22
			c-1.04,0.01-5.65,0.03-9.18,4.54c-3.23,4.2-3.42,8.38-3.59,16.85l0.08,18.2h5.75l0.01,2.2H0.72l-0.01-2.2h6.07L6.49,2.22H0.01L0,0
			z"/>
		<path class="st0" d="M89.46,65.9c0,3.55,0,6.07,2.41,6.07c1.36,0,2.51-1.26,3.24-1.89l1.26,1.47C95.32,72.6,92.91,75,88.52,75
			c-2.3,0-4.5-0.73-6.06-1.99c-2.41-1.99-2.72-4.6-2.93-6.7c-2.3,4.6-6.9,8.68-14.01,8.68c-6.59,0-11.82-3.76-11.82-10.25
			c0-6.38,4.81-10.88,11.82-13.07c4.6-1.36,10.35-1.77,14.22-1.77V39.45c-0.21-3.03-0.42-7.94-7.32-7.94
			c-4.71,0-8.58,2.82-8.58,4.39c0,1.26,2.19,2.62,2.19,5.02c0,2.31-1.98,4.5-4.81,4.5c-2.82,0-4.6-2.3-4.6-4.92
			c0-5.12,6.8-11.08,17.36-11.08c5.02,0,9.93,1.67,12.55,4.19c2.93,3.03,2.93,6.48,2.93,10.45V65.9z M79.74,51.79
			c-8.16,0.11-16.21,2.51-16.21,11.08c0,5.13,3.24,7.31,6.59,7.31c2.93,0,4.91-1.56,5.86-2.4c3.35-3.25,3.55-6.9,3.76-12.23V51.79z"
			/>
		<path class="st0" d="M166.7,75c-12.03,0-22.48-9.83-22.48-22.7c0-13.06,10.45-22.9,22.48-22.9c11.6,0,22.07,9.51,22.07,22.79
			C188.77,65.69,178,75,166.7,75 M174.02,34.53c-1.57-1.57-4.08-2.72-7.21-2.72c-2.93,0-5.54,0.94-7.32,2.52
			c-3.66,3.24-3.66,6.8-3.66,20.18c0,8.06,0.1,12.45,3.66,15.59c1.67,1.57,4.29,2.51,7.22,2.51c4.6,0,6.8-2.31,7.21-2.72
			c2.72-2.82,3.03-5.85,3.03-17.57c0-2.82,0-5.64-0.1-8.57C176.74,41.02,176.53,37.25,174.02,34.53"/>
		<path class="st0" d="M226.88,32.28l-16,42.72h-3.87l-16.73-42.72h-4.4v-2.19h22.18v2.19h-7.11c0,0,10.66,27.35,11.61,30.8
			l11.39-30.8h-7.42v-2.19h14.75v2.19H226.88z"/>
		<path class="st0" d="M267.62,59.42C266.58,66.95,259.99,75,249.75,75c-10.46,0-21.44-9.1-21.44-22.48
			c0-12.03,9.3-23.11,21.02-23.11c8.16,0,18.3,5.34,19.25,19.35h-28.76v4.49c0,6.27,0,8.26,0.31,10.45c0.31,1.57,1.47,9,10.04,9
			c8.16,0,13.8-6.8,14.96-13.28H267.62z M256.96,42.48c-0.11-3.97-0.21-10.77-8.15-10.77c-1.15,0-3.77,0.1-5.97,1.99
			c-2.93,2.4-3.03,5.85-3.03,8.99l-0.11,3.87h17.25V42.48z"/>
		<path class="st0" d="M269.82,30.09h16.21v10.73c0.52-1.47,1.15-3.14,2.61-5.34c2.41-3.45,5.65-5.75,9.72-5.75
			c3.87,0,6.8,2.51,6.8,6.17c0,3.03-2.2,5.44-5.44,5.44c-2.82,0-4.6-1.78-4.92-4.6c-0.21-2.2-0.21-2.72-1.25-2.72
			c-0.21,0-2.2,0.1-4.39,5.33c-2.92,7.01-3.04,12.66-3.14,19.45v13.33h5.86v2.2l-21.97,0v-2.2h6.17V32.28h-6.28V30.09z"/>
		<path class="st0" d="M138.63,72.12V44.89c0-7.32-1.98-9.62-3.45-11.19c-2.51-2.61-6.59-4.29-10.77-4.29
			c-1.78,0-8.89,0.21-14.12,7.53v-6.85H93.56v2.24h1.32c2.92,0,5.25,3.18,5.25,7.6c0,7.78-6.91,9.95-13.87,9.99l-0.04,1.77
			c3.39,0.04,8.08-0.24,11.92-1.33c0.71-0.23,1.39-0.47,2.05-0.75v24.71h16.18v-2.2h-6.07V53.25c0.1-7.94,0.21-14.22,5.12-18.3
			c1.99-1.57,4.39-2.51,6.7-2.51c1.57,0,5.12,0.52,6.17,4.81c0.21,1.05,0.31,1.89,0.42,6.18v28.7h-5.65v2.2h21.54v-2.2H138.63z"/>
	</g>
</g>
</svg>
