<?xml version="1.0" encoding="utf-8"?>
<!-- Generator: Adobe Illustrator 23.0.1, SVG Export Plug-In . SVG Version: 6.00 Build 0)  -->
<svg version="1.1" id="Layer_1" xmlns="http://www.w3.org/2000/svg" xmlns:xlink="http://www.w3.org/1999/xlink" x="0px" y="0px"
	 viewBox="0 0 136.01 45.37" style="enable-background:new 0 0 136.01 45.37;" xml:space="preserve">
<style type="text/css">
	.st0{fill:#00B1AB;}
</style>
<g>
	<g>
		<path d="M0.99,18.32c0.7,1.5,2.29,3.32,5.03,3.32c2.84,0,4.56-2.07,4.56-4.62c0-5.86-10.04-3.35-10.04-10.84
			c0-3.54,2.68-6.02,6.92-6.02c2.01,0,3.44,0.48,4.72,1.5c-0.38,0.73-0.6,1.46-0.86,2.68h-0.38c-0.45-1.18-1.4-3-3.79-3
			c-2.39,0-4.11,1.63-4.11,3.95c0,5.96,10.04,3.47,10.04,10.52c0,3.89-2.9,7.17-7.81,7.17c-2.64,0-4.14-0.93-5.26-1.82
			c0.38-0.99,0.48-1.63,0.6-2.84H0.99z"/>
		<path d="M27.77,0.15c7.04,0,11.95,4.18,11.95,11.41c0,5.96-3.32,9.82-8.41,11.03c2.26,1.82,4.62,3.67,7.2,5.48
			c-1.12,0.06-2.14,0.76-2.49,1.31c-2.33-2.14-4.69-4.27-7.33-6.44c-0.32,0.03-0.6,0.03-0.92,0.03c-7.01,0-11.92-4.18-11.92-11.41
			C15.85,4.33,20.75,0.15,27.77,0.15 M27.77,1.33c-4.97,0-8.8,3.16-8.8,10.23c0,7.08,3.82,10.23,8.8,10.23c5,0,8.83-3.16,8.83-10.23
			C36.59,4.49,32.77,1.33,27.77,1.33"/>
		<path d="M60.59,0.57c0.41,0.1,0.86,0.16,1.31,0.16c0.32,0,0.67-0.06,0.96-0.16c-0.25,2.96-0.51,8.57-0.57,13.23
			c-0.07,5.64-3.35,9.18-9.08,9.18c-6.31,0-9.11-2.93-9.11-9.11c0-1.98,0.16-3.44,0.16-5.03c0-3.51-0.12-6.41-0.19-8.25
			c0.51,0.1,1.15,0.16,1.66,0.16c0.45,0,0.95-0.06,1.37-0.16C46.89,2.45,46.7,6.78,46.7,11.5c0,4.33,0,9.97,7.11,9.97
			c6.98,0,6.98-6.53,6.98-10.55C60.78,4.87,60.78,1.81,60.59,0.57"/>
		<path d="M68.98,8.82c0-2.74-0.13-5.51-0.26-8.26c0.54,0.1,1.05,0.16,1.56,0.16c0.51,0,1.02-0.06,1.56-0.16
			c-0.13,2.74-0.26,5.51-0.26,8.26v5.48c0,2.74,0.13,5.52,0.26,8.26c-0.54-0.09-1.05-0.16-1.56-0.16c-0.51,0-1.02,0.07-1.56,0.16
			c0.13-2.74,0.26-5.51,0.26-8.26V8.82z"/>
		<path d="M77.84,8.82c0-2.74-0.13-5.51-0.26-8.26c1.21,0.1,2.42,0.16,3.64,0.16c1.21,0,2.42-0.16,3.63-0.16
			c3.6,0,6.63,1.24,6.63,5.03c0,4.11-4.11,5.77-6.53,6.09c1.56,1.95,6.88,8.8,8.73,10.87c-0.64-0.09-1.27-0.16-1.91-0.16
			c-0.61,0-1.24,0.07-1.85,0.16c-1.28-1.94-5.51-7.81-8.26-10.58h-1.21v2.32c0,2.74,0.13,5.52,0.26,8.26
			c-0.54-0.09-1.05-0.16-1.56-0.16c-0.51,0-1.02,0.07-1.56,0.16c0.13-2.74,0.26-5.51,0.26-8.26V8.82z M80.45,10.64
			c0.58,0.13,1.31,0.16,2.14,0.16c2.61,0,6.09-1.09,6.09-4.88c0-3.35-2.77-4.18-4.94-4.18c-1.47,0-2.42,0.1-3.09,0.16
			c-0.1,2.33-0.19,4.62-0.19,6.91V10.64z"/>
		<path d="M97.31,8.79c0-2.74-0.13-5.51-0.26-8.22c1.91,0.1,3.8,0.16,5.71,0.16c1.91,0,3.79-0.06,5.67-0.16
			c-0.06,0.32-0.1,0.64-0.1,0.96c0,0.32,0.04,0.64,0.1,0.96c-2.68-0.19-4.24-0.42-8.38-0.42c-0.03,1.37-0.13,2.49-0.13,4.05
			c0,1.66,0.03,3.41,0.03,4.21c3.76,0,5.86-0.16,7.74-0.32c-0.06,0.32-0.1,0.67-0.1,0.99s0.03,0.64,0.1,0.96
			c-2.2-0.22-6.22-0.29-7.74-0.29c-0.03,0.76-0.03,1.56-0.03,4.62c0,2.42,0.03,3.98,0.06,4.78c2.84,0,6.6-0.03,8.61-0.42
			c-0.06,0.29-0.1,0.7-0.1,0.99c0,0.29,0.04,0.64,0.1,0.92c-1.88-0.1-3.79-0.16-5.73-0.16c-1.95,0-3.86,0.07-5.8,0.16
			c0.13-2.77,0.26-5.55,0.26-8.29V8.79z"/>
		<path d="M0.15,37.23c0-1.58-0.08-3.17-0.15-4.75c0.59,0.06,1.19,0.09,1.78,0.09c0.59,0,1.76-0.09,2.27-0.09
			c1.1,0,4.01,0.04,4.01,3.1c0,3.23-3.17,3.85-4.93,3.85c-0.55,0-1.01-0.02-1.48-0.05v1.01c0,1.58,0.07,3.17,0.15,4.74
			c-0.31-0.05-0.6-0.09-0.9-0.09c-0.29,0-0.59,0.04-0.9,0.09c0.07-1.58,0.15-3.17,0.15-4.74V37.23z M1.65,38.6
			c0.38,0.09,0.9,0.15,1.3,0.15c1.5,0,3.43-0.57,3.43-3.06c0-2.09-1.19-2.53-3.08-2.53H1.65V38.6z"/>
		<path d="M13.93,32.25c1.8,4.25,4.54,10.92,5.52,12.88c-0.33-0.05-0.64-0.09-0.97-0.09c-0.33,0-0.64,0.04-0.97,0.09
			c-0.35-1.26-1.23-3.28-1.89-4.91c-0.79-0.02-1.59-0.04-2.4-0.04c-0.75,0-1.48,0.02-2.23,0.04c-0.77,1.89-1.47,3.76-1.78,4.91
			c-0.24-0.05-0.46-0.09-0.68-0.09s-0.44,0.04-0.68,0.09c1.96-4.29,3.87-8.56,5.74-12.88H13.93z M13.32,34.72l-2,4.66
			c0.64,0,1.34,0.03,1.98,0.03c0.68,0,1.38-0.02,2.05-0.03L13.32,34.72z"/>
		<path d="M22.74,37.23c0-1.26-0.02-2.53-0.05-3.79c-1.27,0-2.9,0.07-3.92,0.2c0.05-0.18,0.09-0.38,0.09-0.59
			c0-0.18-0.04-0.37-0.09-0.57c1.57,0.06,3.15,0.09,4.73,0.09c1.58,0,3.15-0.03,4.73-0.09c-0.06,0.2-0.09,0.38-0.09,0.59
			c0,0.18,0.04,0.38,0.09,0.57c-1.03-0.13-2.66-0.2-3.92-0.2c-0.04,1.26-0.06,2.53-0.06,3.79v3.15c0,1.58,0.08,3.17,0.15,4.75
			c-0.31-0.05-0.6-0.09-0.9-0.09c-0.29,0-0.59,0.04-0.9,0.09c0.07-1.58,0.15-3.17,0.15-4.75V37.23z"/>
		<path d="M32.93,37.23c0-1.26-0.02-2.53-0.05-3.79c-1.27,0-2.9,0.07-3.92,0.2c0.05-0.18,0.09-0.38,0.09-0.59
			c0-0.18-0.04-0.37-0.09-0.57c1.58,0.06,3.15,0.09,4.73,0.09c1.58,0,3.15-0.03,4.73-0.09c-0.06,0.2-0.09,0.38-0.09,0.59
			c0,0.18,0.04,0.38,0.09,0.57c-1.03-0.13-2.66-0.2-3.92-0.2c-0.04,1.26-0.06,2.53-0.06,3.79v3.15c0,1.58,0.07,3.17,0.15,4.75
			c-0.31-0.05-0.6-0.09-0.9-0.09c-0.29,0-0.59,0.04-0.9,0.09c0.07-1.58,0.15-3.17,0.15-4.75V37.23z"/>
		<path d="M45.72,32.25c4.05,0,6.87,2.4,6.87,6.56c0,4.16-2.82,6.56-6.87,6.56c-4.03,0-6.85-2.4-6.85-6.56
			C38.86,34.65,41.68,32.25,45.72,32.25 M45.72,32.92c-2.86,0-5.06,1.82-5.06,5.88c0,4.07,2.2,5.88,5.06,5.88
			c2.88,0,5.07-1.81,5.07-5.88C50.79,34.74,48.59,32.92,45.72,32.92"/>
		<path d="M65.47,45.37c-2.79-3.28-6.12-6.8-9.25-10.13c-0.02,0.68-0.06,1.78-0.06,3.72c0,1.57,0.08,5.44,0.17,6.17
			c-0.2-0.05-0.42-0.09-0.64-0.09c-0.22,0-0.44,0.04-0.68,0.09c0.15-0.86,0.39-5.55,0.39-7.97c0-2.31,0-4.08-0.06-4.91h0.29
			c2.99,3.24,7.04,7.66,9.27,9.91c0-3.28,0-6.85-0.15-9.68c0.2,0.05,0.42,0.09,0.62,0.09c0.2,0,0.38-0.04,0.59-0.09
			c-0.11,1.08-0.29,4.71-0.29,6.14c0,1.87,0.04,5.92,0.05,6.74H65.47z"/>
		<path d="M74.5,37.21c0-1.58-0.07-3.17-0.15-4.73c0.64,0.06,1.3,0.09,1.95,0.09c0.64,0,1.3-0.09,1.94-0.09
			c2.09,0,3.87,0.57,3.87,2.64c0,1.8-1.24,2.8-3.08,3.21v0.04c2.18,0.11,3.52,0.99,3.52,3.08c0,2.71-2.51,3.68-4.64,3.68
			c-0.59,0-1.19-0.09-1.78-0.09c-0.59,0-1.19,0.03-1.78,0.09c0.07-1.6,0.15-3.19,0.15-4.77V37.21z M76.99,38.11
			c1.72,0,3.5-0.6,3.5-2.64c0-1.98-1.59-2.31-2.99-2.31c-0.62,0-1.04,0.04-1.39,0.09C76.08,34.41,76,35.58,76,36.74v1.38H76.99z
			 M76,40.66c0,1.23,0.07,2.48,0.11,3.7c0.46,0.05,1.13,0.09,1.8,0.09c1.58,0,2.95-1.1,2.95-3.08c0-2.09-1.59-2.58-4.03-2.58H76
			V40.66z"/>
		<path d="M91.52,32.25c4.05,0,6.87,2.4,6.87,6.56c0,4.16-2.82,6.56-6.87,6.56c-4.03,0-6.85-2.4-6.85-6.56
			C84.67,34.65,87.49,32.25,91.52,32.25 M91.52,32.92c-2.86,0-5.06,1.82-5.06,5.88c0,4.07,2.2,5.88,5.06,5.88
			c2.87,0,5.07-1.81,5.07-5.88C96.6,34.74,94.4,32.92,91.52,32.92"/>
		<path d="M111.46,34.72c-0.75-0.9-2.18-1.8-4.03-1.8c-3.04,0-5.37,1.82-5.37,5.88c0,3.59,2.02,5.79,5.46,5.79
			c1.04,0,2.31-0.2,2.93-0.59c0.02-0.73,0.04-1.47,0.04-2.22c0-0.86-0.06-1.74-0.09-2.51c0.24,0.06,0.58,0.09,0.88,0.09
			c0.27,0,0.55-0.02,0.79-0.09c-0.04,0.55-0.07,1.74-0.07,3.72c0,0.47,0.02,0.99,0.02,1.48c-1.04,0.37-3.24,0.88-4.67,0.88
			c-4.36,0-7.07-2.27-7.07-6.56c0-4.16,2.82-6.56,7.16-6.56c2.47,0,3.81,0.61,4.67,1.06c-0.18,0.33-0.37,0.95-0.42,1.41H111.46z"/>
		<path d="M125.72,34.72c-0.75-0.9-2.18-1.8-4.03-1.8c-3.04,0-5.37,1.82-5.37,5.88c0,3.59,2.02,5.79,5.46,5.79
			c1.04,0,2.31-0.2,2.93-0.59c0.02-0.73,0.03-1.47,0.03-2.22c0-0.86-0.05-1.74-0.09-2.51c0.24,0.06,0.59,0.09,0.88,0.09
			c0.28,0,0.55-0.02,0.79-0.09c-0.04,0.55-0.07,1.74-0.07,3.72c0,0.47,0.02,0.99,0.02,1.48c-1.04,0.37-3.24,0.88-4.67,0.88
			c-4.36,0-7.07-2.27-7.07-6.56c0-4.16,2.82-6.56,7.17-6.56c2.47,0,3.81,0.61,4.67,1.06c-0.18,0.33-0.37,0.95-0.42,1.41H125.72z"/>
		<path d="M129.07,42.69c0.4,0.86,1.32,1.9,2.9,1.9c1.63,0,2.62-1.19,2.62-2.66c0-3.37-5.77-1.93-5.77-6.23
			c0-2.03,1.54-3.46,3.97-3.46c1.16,0,1.98,0.27,2.71,0.86c-0.21,0.42-0.34,0.84-0.49,1.54h-0.22c-0.26-0.68-0.81-1.72-2.18-1.72
			c-1.38,0-2.37,0.93-2.37,2.28c0,3.42,5.77,2,5.77,6.05c0,2.24-1.67,4.12-4.49,4.12c-1.52,0-2.38-0.53-3.02-1.05
			c0.22-0.57,0.28-0.93,0.35-1.63H129.07z"/>
		<path d="M129.02,0.86c-0.02,0.21-0.07,0.41-0.07,0.62c0,4.41,3.03,8.07,7.11,9.12C135.72,6.19,132.94,2.47,129.02,0.86"/>
		<path class="st0" d="M124.67,0c-5.65,0-10.32,4.09-11.27,9.46c1.45,0.92,3.17,1.47,5.02,1.47c5.21,0,9.44-4.23,9.44-9.44
			c0-0.35-0.07-0.68-0.1-1.01C126.77,0.2,125.75,0,124.67,0"/>
		<path class="st0" d="M124.67,22.96c1.08,0,2.09-0.19,3.08-0.47c0.03-0.34,0.1-0.67,0.1-1.02c0-5.21-4.22-9.44-9.44-9.44
			c-1.85,0-3.56,0.55-5.02,1.47C114.36,18.87,119.03,22.96,124.67,22.96"/>
		<path d="M129.02,22.09c3.92-1.61,6.7-5.32,7.04-9.74c-4.08,1.05-7.11,4.71-7.11,9.12C128.96,21.68,129.01,21.88,129.02,22.09"/>
	</g>
</g>
</svg>
