<?xml version="1.0" encoding="utf-8"?>
<!-- Generator: Adobe Illustrator 23.0.1, SVG Export Plug-In . SVG Version: 6.00 Build 0)  -->
<svg version="1.1" id="Layer_1" xmlns="http://www.w3.org/2000/svg" xmlns:xlink="http://www.w3.org/1999/xlink" x="0px" y="0px"
	 viewBox="0 0 258.78 74.17" style="enable-background:new 0 0 258.78 74.17;" xml:space="preserve">
<style type="text/css">
	.Arched_x0020_Green{fill:url(#SVGID_1_);stroke:#FFFFFF;stroke-width:0.25;stroke-miterlimit:1;}
	.st0{fill:#052A0B;}
	.st1{fill:url(#SVGID_2_);}
</style>
<linearGradient id="SVGID_1_" gradientUnits="userSpaceOnUse" x1="-139.1538" y1="40.3325" x2="-138.4467" y2="39.6254">
	<stop  offset="0" style="stop-color:#1DA238"/>
	<stop  offset="0.9831" style="stop-color:#24391D"/>
</linearGradient>
<g>
	<path class="st0" d="M64.98,19.37H57.4v10.8h-4.26V1.2h12.13c5.34,0,9.31,3.06,9.31,9.07C74.58,16.23,70.61,19.37,64.98,19.37z
		 M65.19,5.3H57.4v9.98h7.78c3.31,0,4.97-1.9,4.97-5.01C70.15,7.08,68.21,5.3,65.19,5.3z"/>
	<path class="st0" d="M86.43,30.63c-5.46,0-9.56-4.51-9.56-11.3c0-7.12,4.22-11.34,9.69-11.34c5.55,0,9.69,4.43,9.69,11.22
		C96.24,26.41,92.01,30.63,86.43,30.63z M86.38,12.05c-3.23,0-5.22,2.86-5.22,7.16c0,4.76,2.19,7.37,5.42,7.37
		c3.23,0,5.34-3.27,5.34-7.24C91.93,14.9,89.82,12.05,86.38,12.05z"/>
	<path class="st0" d="M101.13,30.18V2.24L105.39,0v30.18H101.13z"/>
	<path class="st0" d="M113.56,5.63c-1.53,0-2.77-1.24-2.77-2.73c0-1.53,1.24-2.77,2.77-2.77c1.49,0,2.73,1.24,2.73,2.77
		C116.29,4.39,115.05,5.63,113.56,5.63z M111.4,30.18V8.45h4.26v21.73H111.4z"/>
	<path class="st0" d="M131.84,29.64c-1.03,0.58-2.48,0.99-4.18,0.99c-3.02,0-4.89-1.86-4.89-5.75V12.34h-3.1V8.45h3.1V2.24L126.95,0
		v8.45h5.38v3.89h-5.38v11.8c0,2.03,0.66,2.61,2.24,2.61c1.12,0,2.36-0.41,3.15-0.87L131.84,29.64z"/>
	<path class="st0" d="M139.12,5.63c-1.53,0-2.77-1.24-2.77-2.73c0-1.53,1.24-2.77,2.77-2.77c1.49,0,2.73,1.24,2.73,2.77
		C141.85,4.39,140.61,5.63,139.12,5.63z M136.97,30.18V8.45h4.26v21.73H136.97z"/>
	<path class="st0" d="M160.71,14.7c-1.78-1.82-3.35-2.65-5.3-2.65c-3.1,0-5.09,2.77-5.09,7.2c0,4.26,1.82,7.33,5.22,7.33
		c2.03,0,3.23-0.91,4.93-2.69l2.73,2.69c-1.7,2.15-3.85,4.06-7.78,4.06c-5.3,0-9.4-4.47-9.4-11.26c0-7.2,4.22-11.38,9.52-11.38
		c3.19,0,5.67,1.28,7.7,3.68L160.71,14.7z"/>
	<path class="st0" d="M179.54,30.18v-2.15c-1.49,1.49-3.6,2.61-5.96,2.61c-3.52,0-7.54-1.99-7.54-7.33c0-4.84,3.73-7.04,8.65-7.04
		c2.03,0,3.64,0.29,4.84,0.83v-1.62c0-2.36-1.45-3.68-4.1-3.68c-2.24,0-3.97,0.41-5.67,1.37l-1.66-3.23
		c2.07-1.28,4.39-1.95,7.45-1.95c4.84,0,8.16,2.36,8.16,7.29v14.9H179.54z M179.54,20.91c-1.16-0.58-2.65-0.95-4.97-0.95
		c-2.73,0-4.47,1.24-4.47,3.23c0,2.15,1.37,3.6,4.18,3.6c2.28,0,4.26-1.41,5.26-2.77V20.91z"/>
	<path class="st0" d="M189.55,30.18V2.24L193.81,0v30.18H189.55z"/>
	<path class="st0" d="M53.35,66.18V37.2h4.35v28.98H53.35z"/>
	<path class="st0" d="M77.4,66.18V53.88c0-4.39-1.66-5.96-4.47-5.96c-2.86,0-4.47,2.03-4.47,5.55v12.71h-4.26V44.45h4.26v2.07
		c1.08-1.57,3.23-2.52,5.46-2.52c5.05,0,7.74,3.31,7.74,9.73v12.46H77.4z"/>
	<path class="st0" d="M97.35,65.64c-1.03,0.58-2.48,0.99-4.18,0.99c-3.02,0-4.89-1.86-4.89-5.75V48.34h-3.1v-3.89h3.1v-6.21
		L92.47,36v8.45h5.38v3.89h-5.38v11.8c0,2.03,0.66,2.61,2.24,2.61c1.12,0,2.36-0.41,3.15-0.87L97.35,65.64z"/>
	<path class="st0" d="M119.81,56.82h-14.36c0.46,4.18,2.81,5.96,5.46,5.96c1.82,0,3.27-0.66,4.72-1.74l2.53,2.73
		c-1.9,1.82-4.18,2.86-7.49,2.86c-5.09,0-9.4-4.1-9.4-11.3c0-7.37,3.89-11.34,9.52-11.34c6.17,0,9.15,5.01,9.15,10.89
		C119.93,55.66,119.85,56.37,119.81,56.82z M110.49,47.84c-2.86,0-4.6,1.99-4.97,5.46h10.1C115.42,50.32,114.01,47.84,110.49,47.84z
		"/>
	<path class="st0" d="M123.95,66.18V38.24l4.26-2.24v30.18H123.95z"/>
	<path class="st0" d="M134.21,66.18V38.24l4.26-2.24v30.18H134.21z"/>
	<path class="st0" d="M146.63,41.63c-1.53,0-2.77-1.24-2.77-2.73c0-1.53,1.24-2.77,2.77-2.77c1.49,0,2.73,1.24,2.73,2.77
		C149.37,40.39,148.12,41.63,146.63,41.63z M144.48,66.18V44.45h4.26v21.73H144.48z"/>
	<path class="st0" d="M161.64,74.17l-1.45-3.23c6.13-0.29,7.45-1.95,7.45-6.46v-0.37c-1.57,1.45-3.35,2.53-5.63,2.53
		c-4.64,0-8.36-3.39-8.36-11.67c0-7.45,4.1-10.97,8.57-10.97c2.19,0,4.26,1.16,5.42,2.48v-2.03h4.26v19.66
		C171.9,70.73,169.5,73.92,161.64,74.17z M167.72,50.78c-0.95-1.28-2.94-2.86-5.09-2.86c-3.06,0-4.72,2.32-4.72,6.91
		c0,5.46,1.74,7.87,4.88,7.87c2.03,0,3.81-1.37,4.93-2.77V50.78z"/>
	<path class="st0" d="M194.46,56.82H180.1c0.46,4.18,2.82,5.96,5.46,5.96c1.82,0,3.27-0.66,4.72-1.74l2.53,2.73
		c-1.9,1.82-4.18,2.86-7.49,2.86c-5.09,0-9.4-4.1-9.4-11.3c0-7.37,3.89-11.34,9.52-11.34c6.17,0,9.15,5.01,9.15,10.89
		C194.59,55.66,194.51,56.37,194.46,56.82z M185.15,47.84c-2.86,0-4.59,1.99-4.97,5.46h10.1C190.08,50.32,188.67,47.84,185.15,47.84
		z"/>
	<path class="st0" d="M211.73,66.18V53.88c0-4.39-1.66-5.96-4.47-5.96c-2.86,0-4.47,2.03-4.47,5.55v12.71h-4.26V44.45h4.26v2.07
		c1.08-1.57,3.23-2.52,5.46-2.52c5.05,0,7.74,3.31,7.74,9.73v12.46H211.73z"/>
	<path class="st0" d="M234.5,50.7c-1.78-1.82-3.35-2.65-5.3-2.65c-3.11,0-5.09,2.77-5.09,7.2c0,4.26,1.82,7.33,5.22,7.33
		c2.03,0,3.23-0.91,4.93-2.69l2.73,2.69c-1.7,2.15-3.85,4.06-7.78,4.06c-5.3,0-9.4-4.47-9.4-11.26c0-7.2,4.22-11.38,9.52-11.38
		c3.19,0,5.67,1.28,7.7,3.68L234.5,50.7z"/>
	<path class="st0" d="M258.65,56.82h-14.37c0.46,4.18,2.82,5.96,5.46,5.96c1.82,0,3.27-0.66,4.72-1.74l2.53,2.73
		c-1.9,1.82-4.18,2.86-7.49,2.86c-5.09,0-9.4-4.1-9.4-11.3c0-7.37,3.89-11.34,9.52-11.34c6.17,0,9.15,5.01,9.15,10.89
		C258.78,55.66,258.7,56.37,258.65,56.82z M249.34,47.84c-2.86,0-4.59,1.99-4.97,5.46h10.1C254.27,50.32,252.86,47.84,249.34,47.84z
		"/>
</g>
<linearGradient id="SVGID_2_" gradientUnits="userSpaceOnUse" x1="43.3598" y1="33.5771" x2="0" y2="33.5771">
	<stop  offset="0" style="stop-color:#052A0B"/>
	<stop  offset="0.5951" style="stop-color:#225527"/>
	<stop  offset="1" style="stop-color:#617B52"/>
</linearGradient>
<path class="st1" d="M42.29,14.03c0.59-0.09,1.07-0.75,1.07-1.46V1.98c0-0.71-0.48-1.14-1.07-0.95l-8.71,2.84
	C33,4.06,32.52,4.72,32.52,5.33v9.08c0,0.61-0.48,1.19-1.07,1.28l-8.71,1.32c-0.59,0.09-1.07-0.26-1.07-0.77V8.67
	c0-0.51-0.48-0.77-1.07-0.58l-8.71,2.84c-0.59,0.19-1.07,0.68-1.07,1.09v6.05c0,0.41-0.48,0.81-1.07,0.9L1.07,20.3
	C0.48,20.39,0,20.72,0,21.02v4.54c0,0.31,0.48,0.57,1.07,0.58l8.71,0.19c0.59,0.01,1.07,0.36,1.07,0.76v6.05
	c0,0.41-0.48,0.65-1.07,0.53l-8.71-1.7C0.48,31.86,0,32.02,0,32.33v4.54c0,0.31,0.48,0.73,1.07,0.95l8.71,3.22
	c0.59,0.22,1.07,0.73,1.07,1.14v6.05c0,0.41,0.48,1,1.07,1.32l8.71,4.73c0.59,0.32,1.07,0.16,1.07-0.35v-7.57
	c0-0.51,0.48-0.75,1.07-0.53l8.71,3.22c0.59,0.22,1.07,0.89,1.07,1.51v9.08c0,0.61,0.48,1.37,1.07,1.69l8.71,4.73
	c0.59,0.32,1.07,0,1.07-0.72V54.74c0-0.71-0.48-1.48-1.07-1.69l-8.71-3.22c-0.59-0.22-1.07-0.89-1.07-1.51v-9.08
	c0-0.61,0.48-1.02,1.07-0.9l8.71,1.7c0.59,0.11,1.07-0.38,1.07-1.09V28.36c0-0.71-0.48-1.31-1.07-1.32l-8.71-0.19
	c-0.59-0.01-1.07-0.52-1.07-1.14v-9.08c0-0.61,0.48-1.19,1.07-1.27L42.29,14.03z M10.84,19.56c0-0.41,0.48-0.81,1.07-0.9l8.71-1.32
	c0.59-0.09,1.07,0.26,1.07,0.77v7.57c0,0.51-0.48,0.92-1.07,0.9l-8.71-0.19c-0.59-0.01-1.07-0.36-1.07-0.77V19.56z M21.68,44.5
	c0,0.51-0.48,0.75-1.07,0.53l-8.71-3.22c-0.59-0.22-1.07-0.73-1.07-1.14v-6.05c0-0.41,0.48-0.65,1.07-0.53l8.71,1.7
	c0.59,0.11,1.07,0.63,1.07,1.14V44.5z M32.52,37.02c0,0.61-0.48,1.02-1.07,0.9l-8.71-1.7c-0.59-0.11-1.07-0.63-1.07-1.14v-7.56
	c0-0.51,0.48-0.92,1.07-0.9l8.71,0.19c0.59,0.01,1.07,0.52,1.07,1.14V37.02z"/>
</svg>
