<?xml version="1.0" encoding="utf-8"?>
<!-- Generator: Adobe Illustrator 23.0.1, SVG Export Plug-In . SVG Version: 6.00 Build 0)  -->
<svg version="1.1" id="Layer_1" xmlns="http://www.w3.org/2000/svg" xmlns:xlink="http://www.w3.org/1999/xlink" x="0px" y="0px"
	 viewBox="0 0 380.42 108.27" style="enable-background:new 0 0 380.42 108.27;" xml:space="preserve">
<style type="text/css">
	.st0{fill:#2E2B29;}
	.st1{fill:#59A169;}
</style>
<g>
	<path class="st0" d="M76.47,6.77h11.84v43.14H90L135.4,6.77h17.06L103.11,52.3l51.74,54.28h-17.34L90,55.83h-1.69v50.75H76.47V6.77
		z"/>
	<path class="st0" d="M208.14,94.59c-7.75,10.01-17.06,13.67-29.32,13.67c-20.72,0-33.41-15.51-33.41-34.68
		c0-20.44,14.38-34.68,33.83-34.68c18.61,0,31.3,12.69,31.3,34.54v3.52h-53.29c0.85,11.42,9.59,21.15,21.57,21.15
		c9.45,0,15.79-3.38,21.01-10.01L208.14,94.59z M198.7,67.67c-0.42-11.14-7.75-18.61-19.88-18.61c-12.12,0-20.16,7.47-21.57,18.61
		H198.7z"/>
	<path class="st0" d="M215.9,0h11v106.58h-11V0z"/>
	<path class="st0" d="M237.04,0h11v106.58h-11V0z"/>
	<path class="st0" d="M316.13,94.59c-7.75,10.01-17.06,13.67-29.32,13.67c-20.72,0-33.41-15.51-33.41-34.68
		c0-20.44,14.38-34.68,33.83-34.68c18.61,0,31.3,12.69,31.3,34.54v3.52h-53.29c0.85,11.42,9.59,21.15,21.57,21.15
		c9.45,0,15.79-3.38,21.01-10.01L316.13,94.59z M306.69,67.67c-0.42-11.14-7.75-18.61-19.88-18.61s-20.16,7.47-21.57,18.61H306.69z"
		/>
	<path class="st0" d="M322.9,56.25c0-6.06-0.56-11.28-0.56-15.65h10.43c0,3.52,0.28,7.19,0.28,10.85h0.28
		c2.96-6.48,11.14-12.55,21.99-12.55c17.34,0,25.09,11,25.09,26.93v40.74h-11V66.96c0-11-4.79-17.9-15.08-17.9
		c-14.24,0-20.44,10.29-20.44,25.38v32.14h-11V56.25z"/>
</g>
<polyline class="st1" points="64.53,6.76 64.53,51.5 17.99,6.9 "/>
<polyline class="st0" points="0,6.76 0.13,105.74 50.71,53.4 "/>
<polyline class="st1" points="64.48,106.32 64.48,53.85 15.74,106.18 "/>
</svg>
