<?xml version="1.0" encoding="utf-8"?>
<!-- Generator: Adobe Illustrator 24.0.2, SVG Export Plug-In . SVG Version: 6.00 Build 0)  -->
<svg version="1.1" id="Layer_1" xmlns="http://www.w3.org/2000/svg" xmlns:xlink="http://www.w3.org/1999/xlink" x="0px" y="0px"
	 viewBox="0 0 164 40.6" style="enable-background:new 0 0 164 40.6;" xml:space="preserve">
<style type="text/css">
	.st0{fill:#5C7A2C;}
	.st1{fill:#7A797D;}
</style>
<g>
	<polygon class="st0" points="6.1,36.1 2.2,25.5 5,25.5 7.7,33.9 10.4,25.5 12.9,25.5 9,36.1 	"/>
	<path class="st0" d="M17.7,36.3c-1.6,0-2.2-0.7-2.5-1c-0.8-1-0.8-2.4-0.8-3.1v-6.6h2.7v6c0,2.4,1.2,2.4,1.8,2.4
		c0.8,0,1.3-0.3,1.5-0.5c0.7-0.5,1-1.1,1.2-1.4v-6.5h2.7V33c0,0.4,0.1,0.5,0.2,0.6c0.2,0.2,0.4,0.2,0.5,0.2v2.3
		c-0.4,0.1-0.6,0.1-0.7,0.1c-0.3,0-0.4,0-0.5,0c-0.7,0-1-0.2-1.2-0.3c-0.5-0.3-0.5-0.7-0.5-0.9L22,34.1c-0.7,1.1-1.4,1.4-1.8,1.6
		C19.1,36.3,18.2,36.3,17.7,36.3z"/>
	<path class="st0" d="M27.1,21.4h2.7v11.3c0,0.6,0.2,0.8,0.3,0.9c0.3,0.3,0.6,0.3,0.8,0.3c0.2,0,0.4-0.1,0.5-0.1
		c0.3-0.1,0.5-0.2,0.6-0.2l0.4,2.1c-0.5,0.3-1,0.4-1.3,0.4c-0.7,0.1-1.1,0.1-1.3,0.1c-1.3,0-1.7-0.4-2-0.7c-0.7-0.7-0.7-1.5-0.7-1.9
		V21.4z"/>
	<path class="st0" d="M33.1,30.8c0-1.1,0.3-1.8,0.4-2.1c0.4-1,0.9-1.5,1.1-1.7c0.7-0.7,1.4-1,1.8-1.2c1-0.4,1.9-0.4,2.3-0.4
		c1.7,0,2.5,0.5,2.9,0.7c1.2,0.7,1.6,1.6,1.8,2l-2.6,0.8c-0.3-0.6-0.7-0.8-0.9-0.9c-0.6-0.3-1-0.3-1.2-0.3c-0.6,0-0.9,0.2-1.1,0.2
		c-0.5,0.2-0.8,0.5-0.9,0.6c-0.4,0.4-0.5,0.8-0.6,1c-0.2,0.6-0.2,1.1-0.2,1.3c0,0.7,0.1,1.1,0.2,1.3c0.2,0.6,0.5,0.9,0.6,1
		c0.4,0.4,0.7,0.6,0.9,0.7c0.5,0.2,0.9,0.2,1.1,0.2c0.7,0,1.1-0.2,1.3-0.4c0.6-0.4,0.8-0.7,0.9-0.9l2.6,0.8c-0.5,1.2-1.4,1.7-1.8,2
		c-1.2,0.8-2.4,0.8-3,0.8c-1.3,0-2-0.3-2.3-0.4c-1-0.4-1.5-0.9-1.8-1.2c-0.7-0.8-1-1.4-1.1-1.8C33.1,31.9,33.1,31.2,33.1,30.8z"/>
	<path class="st0" d="M48.9,34.3c0.7,0,1.1-0.2,1.3-0.2c0.6-0.2,0.8-0.5,1-0.6c0.4-0.3,0.4-0.6,0.4-0.8v-1.2c-0.5-0.2-0.9-0.3-1-0.3
		C50,31,49.7,31,49.5,31c-1,0-1.5,0.3-1.7,0.5c-0.7,0.5-0.7,1-0.7,1.2c0,0.7,0.3,1,0.5,1.1C48.2,34.3,48.7,34.3,48.9,34.3z
		 M48.2,36.3c-0.8,0-1.2-0.2-1.4-0.3c-0.7-0.3-1-0.6-1.1-0.7c-0.5-0.5-0.7-0.9-0.8-1.1c-0.3-0.6-0.3-1.1-0.3-1.3
		c0-0.7,0.2-1.2,0.3-1.4c0.3-0.6,0.7-0.9,0.9-1.1c0.6-0.4,1.1-0.6,1.4-0.7c0.8-0.3,1.5-0.3,1.8-0.3c0.7,0,1.2,0.1,1.4,0.1
		c0.7,0.1,1,0.3,1.2,0.3v-0.6c0-1-0.4-1.4-0.6-1.6c-0.6-0.6-1.4-0.6-1.8-0.6c-0.8,0-1.4,0.2-1.7,0.3c-0.8,0.3-1.4,0.7-1.6,0.9
		l-0.8-1.7c2-1.3,3.6-1.3,4.4-1.3c2.3,0,3.1,0.7,3.5,1.1c1.3,1.1,1.3,2.5,1.3,3.2V33c0,0.4,0.1,0.5,0.2,0.6c0.2,0.2,0.4,0.2,0.5,0.2
		v2.3c-0.7,0.1-1,0.1-1.2,0.1c-0.8,0-1-0.2-1.2-0.3c-0.4-0.3-0.5-0.7-0.5-0.9L52,34.4c-0.7,0.9-1.4,1.2-1.7,1.4
		C49.3,36.3,48.6,36.3,48.2,36.3z"/>
	<path class="st0" d="M66.9,36.1h-2.7v-5.9c0-1.3-0.3-1.7-0.4-1.9c-0.4-0.6-1-0.6-1.2-0.6c-0.4,0-0.7,0.1-0.8,0.2
		c-0.4,0.2-0.7,0.4-0.8,0.5c-0.4,0.3-0.6,0.6-0.7,0.7c-0.3,0.4-0.4,0.7-0.4,0.9v6.2h-2.7V25.5h2.4v2c0.6-1,1.3-1.4,1.7-1.6
		c1.1-0.6,2-0.6,2.5-0.6c1,0,1.4,0.2,1.6,0.4c0.6,0.4,0.9,0.8,1,0.9c0.3,0.6,0.4,1.1,0.5,1.3c0.1,0.7,0.1,1.3,0.1,1.5V36.1z"/>
</g>
<g>
	<path class="st1" d="M69,30.8c0-1.1,0.3-1.8,0.4-2.1c0.4-1,0.8-1.5,1.1-1.7c0.7-0.7,1.3-1,1.6-1.1c0.9-0.4,1.7-0.4,2.1-0.4
		c1.4,0,2.2,0.4,2.5,0.6c1.1,0.6,1.4,1.4,1.6,1.8l-1,0.3c-0.5-0.9-1-1.2-1.3-1.4c-0.9-0.5-1.5-0.5-1.9-0.5c-0.9,0-1.4,0.2-1.6,0.3
		c-0.7,0.3-1.1,0.7-1.3,0.9c-0.6,0.6-0.8,1.1-0.9,1.4C70,29.9,70,30.5,70,30.8c0,0.9,0.2,1.5,0.3,1.8c0.3,0.8,0.7,1.2,0.9,1.4
		c0.6,0.6,1.1,0.9,1.3,1c0.8,0.4,1.3,0.4,1.6,0.4c0.5,0,0.9-0.1,1.1-0.2c0.5-0.2,0.8-0.3,1-0.4c0.5-0.3,0.7-0.5,0.8-0.6
		c0.3-0.4,0.4-0.6,0.5-0.7l1,0.3c-0.2,0.5-0.5,0.9-0.6,1c-0.4,0.5-0.8,0.7-1,0.8c-0.6,0.3-1,0.5-1.2,0.5c-0.7,0.2-1.2,0.2-1.4,0.2
		c-1.1,0-1.7-0.3-2.1-0.4c-0.9-0.4-1.4-0.9-1.6-1.2c-0.7-0.8-1-1.4-1.1-1.7C69,31.9,69,31.2,69,30.8z"/>
	<path class="st1" d="M81.1,30.9c0,0.9,0.2,1.5,0.3,1.7c0.3,0.8,0.7,1.2,0.9,1.4c0.6,0.6,1.1,0.8,1.3,1c0.7,0.4,1.3,0.4,1.6,0.4
		c0.8,0,1.3-0.2,1.6-0.4c0.7-0.4,1.1-0.8,1.3-1c0.6-0.6,0.8-1.2,0.9-1.4c0.3-0.8,0.3-1.4,0.3-1.8c0-0.9-0.2-1.5-0.3-1.7
		c-0.3-0.8-0.7-1.2-0.9-1.4c-0.6-0.6-1.1-0.9-1.3-1c-0.7-0.4-1.3-0.4-1.6-0.4c-0.8,0-1.3,0.2-1.6,0.4c-0.7,0.4-1.1,0.8-1.3,1
		c-0.6,0.6-0.8,1.2-0.9,1.5C81.1,30,81.1,30.6,81.1,30.9z M85.2,36.3c-1.1,0-1.7-0.3-2-0.4c-0.9-0.4-1.4-0.9-1.6-1.2
		c-0.7-0.7-0.9-1.4-1.1-1.7c-0.4-1-0.4-1.7-0.4-2.1c0-1.1,0.3-1.8,0.4-2.1c0.4-1,0.8-1.5,1.1-1.7c0.7-0.7,1.3-1,1.6-1.2
		c0.9-0.4,1.7-0.4,2-0.4c1.1,0,1.7,0.3,2,0.4c0.9,0.4,1.4,0.9,1.6,1.2c0.7,0.7,1,1.4,1.1,1.7c0.4,1,0.4,1.7,0.4,2.1
		c0,1.1-0.3,1.7-0.4,2.1c-0.4,1-0.8,1.5-1.1,1.7c-0.7,0.7-1.3,1-1.6,1.2C86.3,36.3,85.6,36.3,85.2,36.3z"/>
	<path class="st1" d="M101.5,36.1h-1v-5.8c0-2-0.4-2.7-0.6-3c-0.6-0.9-1.4-0.9-1.8-0.9c-0.7,0-1.1,0.2-1.3,0.2
		c-0.7,0.2-1,0.5-1.2,0.7c-0.6,0.4-0.8,0.8-1,1c-0.4,0.6-0.6,1-0.6,1.3v6.5h-1V25.6h0.9v2.5c0.3-0.6,0.6-0.9,0.8-1.1
		c0.5-0.5,0.9-0.7,1.1-0.8c0.6-0.4,1-0.5,1.3-0.5c0.7-0.2,1.1-0.2,1.4-0.2c1.7,0,2.2,0.8,2.4,1.2c0.7,1.2,0.7,2.7,0.7,3.4V36.1z"/>
	<path class="st1" d="M108.1,36.3c-1.2,0-1.9-0.3-2.3-0.4c-1.1-0.4-1.7-0.9-1.9-1.2l0.5-0.7c0.8,0.8,1.4,1,1.8,1.1
		c0.9,0.4,1.6,0.4,2,0.4c1.4,0,1.9-0.4,2.2-0.6c0.8-0.6,0.8-1.3,0.8-1.6c0-0.5-0.1-0.7-0.2-0.8c-0.2-0.3-0.5-0.5-0.6-0.6
		c-0.4-0.2-0.8-0.4-1-0.4c-0.6-0.2-1.2-0.3-1.4-0.4c-0.9-0.2-1.3-0.3-1.5-0.4c-0.7-0.2-0.9-0.4-1.1-0.5c-0.4-0.3-0.6-0.6-0.6-0.7
		c-0.2-0.4-0.2-0.8-0.2-1c0-0.8,0.2-1.2,0.3-1.4c0.3-0.6,0.7-0.8,0.8-1c0.5-0.4,1-0.5,1.2-0.6c0.7-0.2,1.2-0.2,1.5-0.2
		c1.2,0,1.9,0.3,2.2,0.4c0.9,0.4,1.3,0.8,1.5,1.1l-0.6,0.5c-0.5-0.6-1.1-0.8-1.4-0.9c-0.8-0.3-1.5-0.3-1.8-0.3
		c-0.6,0-0.9,0.1-1.1,0.1c-0.5,0.1-0.8,0.3-0.9,0.4c-0.4,0.3-0.5,0.5-0.6,0.7c-0.2,0.4-0.2,0.8-0.2,1c0,0.5,0.1,0.7,0.2,0.7
		c0.2,0.3,0.4,0.4,0.5,0.5c0.3,0.2,0.7,0.3,0.9,0.4c0.5,0.2,1,0.3,1.2,0.3c1,0.2,1.5,0.4,1.8,0.5c0.8,0.2,1.1,0.4,1.3,0.5
		c0.5,0.3,0.7,0.6,0.8,0.8c0.3,0.4,0.3,0.9,0.3,1.1c0,1.4-0.7,2-1.1,2.2C109.9,36.3,108.7,36.3,108.1,36.3z"/>
	<path class="st1" d="M117.9,36.3c-3.3,0-3.3-3.1-3.3-4.6v-6h1v5.9c0,3.9,1.8,3.9,2.6,3.9c0.7,0,1.1-0.2,1.3-0.2
		c0.6-0.2,1-0.5,1.2-0.6c0.5-0.4,0.8-0.8,1-1c0.4-0.6,0.6-1.1,0.7-1.3v-6.6h1v9.1c0,0.5,0.3,0.5,0.4,0.5v0.9c-0.1,0-0.2,0-0.2,0
		c-0.1,0-0.1,0-0.1,0c-0.4,0-0.6-0.2-0.7-0.3c-0.3-0.3-0.3-0.5-0.3-0.7v-1.6c-0.7,1.3-1.5,1.7-1.9,2
		C119.3,36.3,118.3,36.3,117.9,36.3z"/>
	<path class="st1" d="M126.7,21.4h1V34c0,0.6,0.2,0.8,0.3,0.9c0.3,0.3,0.7,0.3,0.9,0.3c0.2,0,0.4,0,0.5-0.1c0.3-0.1,0.5-0.1,0.6-0.2
		l0.2,0.8c-0.3,0.1-0.7,0.2-0.8,0.2c-0.5,0.1-0.7,0.1-0.9,0.1c-0.8,0-1.2-0.3-1.4-0.5c-0.5-0.5-0.5-1.1-0.5-1.4V21.4z"/>
	<path class="st1" d="M136.7,35.6c-0.1,0-0.2,0.1-0.3,0.2c-0.2,0.1-0.4,0.2-0.5,0.2c-0.3,0.1-0.5,0.2-0.7,0.2
		c-0.4,0.1-0.6,0.1-0.8,0.1c-0.4,0-0.7-0.1-0.8-0.1c-0.4-0.1-0.6-0.3-0.7-0.4c-0.3-0.2-0.4-0.5-0.4-0.6c-0.2-0.3-0.2-0.7-0.2-0.8
		v-7.9H131v-0.8h1.5V22h1v3.6h2.4v0.8h-2.4v7.6c0,0.6,0.3,0.8,0.4,0.9c0.4,0.3,0.7,0.3,0.9,0.3c0.6,0,0.9-0.1,1.1-0.2
		c0.5-0.2,0.5-0.3,0.6-0.3L136.7,35.6z"/>
	<path class="st1" d="M138.7,23.2v-1.9h1v1.9H138.7z M138.7,36.1V25.6h1v10.5H138.7z"/>
	<path class="st1" d="M151.6,36.1h-1v-5.8c0-2-0.4-2.7-0.6-3c-0.6-0.9-1.4-0.9-1.8-0.9c-0.7,0-1.1,0.2-1.3,0.2
		c-0.7,0.2-1,0.5-1.2,0.7c-0.6,0.4-0.8,0.8-1,1c-0.4,0.6-0.6,1-0.6,1.3v6.5h-1V25.6h0.9v2.5c0.3-0.6,0.6-0.9,0.8-1.1
		c0.5-0.5,0.9-0.7,1.1-0.8c0.6-0.4,1-0.5,1.3-0.5c0.7-0.2,1.1-0.2,1.4-0.2c1.7,0,2.2,0.8,2.4,1.2c0.7,1.2,0.7,2.7,0.7,3.4V36.1z"/>
	<path class="st1" d="M159.3,35.4c0.7,0,1.1-0.2,1.3-0.3c0.6-0.3,1-0.5,1.1-0.7c0.5-0.4,0.7-0.7,0.8-0.9c0.3-0.5,0.4-0.8,0.4-1v-3.4
		c-0.2-0.6-0.5-0.9-0.6-1.1c-0.4-0.5-0.7-0.8-0.9-0.9c-0.5-0.4-0.9-0.5-1.1-0.6c-0.6-0.2-1-0.2-1.2-0.2c-0.9,0-1.4,0.3-1.7,0.4
		c-0.7,0.4-1.1,0.8-1.3,1c-0.5,0.6-0.7,1.2-0.8,1.5c-0.3,0.8-0.3,1.4-0.3,1.6c0,0.9,0.2,1.4,0.3,1.7c0.3,0.8,0.7,1.2,0.9,1.4
		c0.6,0.6,1.1,0.9,1.3,1C158.5,35.4,159.1,35.4,159.3,35.4z M159.1,36.2c-1.1,0-1.7-0.3-2-0.5c-0.9-0.5-1.3-1-1.6-1.2
		c-0.7-0.8-0.9-1.4-1-1.7c-0.4-1-0.4-1.7-0.4-2c0-1.1,0.2-1.7,0.4-2.1c0.4-1,0.8-1.5,1-1.7c0.6-0.8,1.2-1,1.5-1.2
		c0.9-0.4,1.6-0.4,2-0.4c1.4,0,2,0.5,2.4,0.7c1,0.7,1.5,1.4,1.7,1.7v-2.3h0.9v10.7c0,1.1-0.3,1.6-0.4,1.9c-0.4,0.8-0.9,1.2-1.1,1.3
		c-0.7,0.5-1.3,0.7-1.6,0.8c-0.9,0.3-1.6,0.3-1.9,0.3c-0.9,0-1.4-0.1-1.6-0.2c-0.7-0.2-1.1-0.4-1.3-0.5c-0.6-0.3-0.8-0.6-1-0.8
		c-0.4-0.5-0.6-0.8-0.8-1l0.7-0.5c0.6,1.1,1.3,1.4,1.7,1.6c1.1,0.5,1.9,0.5,2.3,0.5c0.8,0,1.3-0.1,1.5-0.2c0.7-0.2,1.1-0.5,1.2-0.7
		c0.5-0.4,0.7-0.9,0.8-1.1c0.3-0.6,0.3-1.2,0.3-1.5V34c-0.6,1-1.4,1.4-1.7,1.6C160.3,36.2,159.5,36.2,159.1,36.2z"/>
	<path class="st0" d="M1.8,10.9c0.2,0.6,0.3,1,0.5,1.7c0.4-0.7,0.8-1.3,1.1-1.9c0.7-1.4,1.5-2.7,2.1-4.1C6,5.3,6.2,3.9,5.7,2.6
		c-0.3-0.7-0.8-1.3-1.2-2C4.4,0.5,4.3,0.3,4.1,0c0.3,0-0.1,0,0,0c2.4,0.6,4.3,1.7,5.9,3c0.5,0.4,0.9,0.9,1.3,1.4
		c1,1.2,1,2.7,0.5,4.1c-0.4,1-0.9,1.9-1.3,2.8c-0.2,0.6-0.4,1.1-0.5,1.7c-0.2,0.9,0.3,1.5,1.1,1.8c0.7,0.2,1.4-0.1,1.7-0.9
		c0.5-1.2,1-2.5,1.4-3.8c0.2-0.5,0.2-1.1,0.4-1.6C14.7,8.6,14.9,8.8,15,9c1.3,3.2,1.7,6.4,0.3,9.7c-0.9,2.3-2.5,4.1-4.9,4.7
		c-4.4,1.1-8.5-1-9.9-5.3c-0.6-1.7-0.6-3.4-0.1-5.1C0.6,12.2,0.9,11.4,1.8,10.9 M8.4,6.7C7.9,8.3,7.1,9.7,6.2,11
		c-1.4,1.9-2.2,4-1.5,6.5c0,0.1,0.1,0.2,0,0.3c-0.1,0.2-0.1,0.4-0.3,0.7c-0.7-0.4-1.2-0.7-1.9-1.2c0.1,0.6,0.2,1,0.3,1.3
		c0.5,1.2,1.2,2.2,2.1,3.1c0.8,0.7,1.8,1.1,2.8,1.1c2.3,0.1,4.3-1.3,5.1-3.6c0.2-0.5,0.4-1,0.4-1.6c-0.3,0.2-0.5,0.4-0.7,0.5
		c-1.6,1.3-3.8,1-4.9-1.2c-0.7-1.4-0.9-3-0.3-4.5c0.2-0.7,0.5-1.3,0.8-2C8.7,9.2,8.7,8,8.4,6.7"/>
</g>
</svg>
